<?xml version="1.0" encoding="utf-8"?>
<!-- Generator: Adobe Illustrator 15.1.0, SVG Export Plug-In . SVG Version: 6.00 Build 0)  -->
<!DOCTYPE svg PUBLIC "-//W3C//DTD SVG 1.1//EN" "http://www.w3.org/Graphics/SVG/1.1/DTD/svg11.dtd">
<svg version="1.1" id="Calque_1" xmlns="http://www.w3.org/2000/svg" xmlns:xlink="http://www.w3.org/1999/xlink" x="0px" y="0px"
	 width="94.088px" height="94.086px" viewBox="0 0 94.088 94.086" enable-background="new 0 0 94.088 94.086" xml:space="preserve">
<g>
	<g>
		<path fill="#FFFFFF" d="M47.45,15.721c-4.197,0-7.611-3.414-7.611-7.61c0-4.197,3.415-7.611,7.611-7.611
			c4.195,0,7.609,3.415,7.609,7.611C55.062,12.308,51.646,15.721,47.45,15.721z"/>
		<path fill="#CCCCCC" d="M47.45,1c3.921,0,7.109,3.19,7.109,7.111c0,3.92-3.188,7.11-7.109,7.11c-3.921,0-7.111-3.189-7.111-7.11
			C40.339,4.19,43.529,1,47.45,1 M47.45,0c-4.48,0-8.111,3.631-8.111,8.111c0,4.481,3.631,8.11,8.111,8.11
			c4.479,0,8.109-3.629,8.109-8.11C55.562,3.631,51.931,0,47.45,0L47.45,0z"/>
	</g>
	<g>
		<path fill="#FFFFFF" d="M47.45,93.586c-4.197,0-7.611-3.414-7.611-7.61c0-4.194,3.415-7.608,7.611-7.608
			c4.195,0,7.609,3.414,7.609,7.608C55.062,90.172,51.646,93.586,47.45,93.586z"/>
		<path fill="#CCCCCC" d="M47.45,78.868c3.921,0,7.109,3.188,7.109,7.107c0,3.921-3.188,7.111-7.109,7.111
			c-3.921,0-7.111-3.19-7.111-7.111C40.339,82.056,43.529,78.868,47.45,78.868 M47.45,77.868c-4.48,0-8.111,3.629-8.111,8.107
			c0,4.48,3.631,8.111,8.111,8.111c4.479,0,8.109-3.631,8.109-8.111C55.562,81.497,51.931,77.868,47.45,77.868L47.45,77.868z"/>
	</g>
	<path fill="#0071BC" d="M8.111,38.527c4.481,0,8.109,3.629,8.109,8.111c0,4.481-3.628,8.11-8.109,8.11
		C3.631,54.749,0,51.12,0,46.639C0,42.157,3.631,38.527,8.111,38.527z"/>
	<circle fill="#C1272D" cx="85.978" cy="46.638" r="8.111"/>
	<path fill="#0071BC" d="M25.535,13.492c3.17,3.168,3.17,8.304,0,11.47c-3.169,3.17-8.301,3.17-11.469,0
		c-3.168-3.166-3.168-8.301,0-11.47C17.234,10.325,22.366,10.325,25.535,13.492z"/>
	<path fill="#C1272D" d="M80.597,68.553c3.168,3.164,3.168,8.302,0,11.468c-3.168,3.169-8.304,3.169-11.47,0.003
		c-3.17-3.169-3.17-8.307,0-11.473C72.293,65.383,77.429,65.383,80.597,68.553z"/>
	<circle fill="#0071BC" cx="19.227" cy="74.288" r="8.111"/>
	<path fill="#C1272D" d="M68.556,13.492c3.164-3.167,8.299-3.167,11.465,0c3.168,3.168,3.168,8.304,0,11.471
		c-3.166,3.168-8.301,3.168-11.465-0.001C65.385,21.796,65.385,16.661,68.556,13.492z"/>
</g>
<g>
	<g>
		<path fill="#FFFFFF" d="M150.069-184.327c-0.714,0-1.295-0.581-1.295-1.294c0-0.714,0.581-1.294,1.295-1.294
			c0.713,0,1.294,0.581,1.294,1.294S150.782-184.327,150.069-184.327z"/>
		<path fill="#CCCCCC" d="M150.069-186.83c0.666,0,1.209,0.542,1.209,1.209c0,0.667-0.543,1.209-1.209,1.209
			c-0.667,0-1.21-0.542-1.21-1.209S149.402-186.83,150.069-186.83 M150.069-187c-0.762,0-1.38,0.618-1.38,1.379
			s0.618,1.379,1.38,1.379s1.379-0.617,1.379-1.379S150.831-187,150.069-187L150.069-187z"/>
	</g>
	<g>
		<path fill="#FFFFFF" d="M150.069-171.085c-0.714,0-1.295-0.581-1.295-1.294s0.581-1.294,1.295-1.294
			c0.713,0,1.294,0.581,1.294,1.294S150.782-171.085,150.069-171.085z"/>
		<path fill="#CCCCCC" d="M150.069-173.588c0.666,0,1.209,0.542,1.209,1.208c0,0.667-0.543,1.209-1.209,1.209
			c-0.667,0-1.21-0.542-1.21-1.209C148.859-173.046,149.402-173.588,150.069-173.588 M150.069-173.758
			c-0.762,0-1.38,0.617-1.38,1.378c0,0.762,0.618,1.379,1.38,1.379s1.379-0.617,1.379-1.379
			C151.448-173.141,150.831-173.758,150.069-173.758L150.069-173.758z"/>
	</g>
	<path fill="#0071BC" d="M143.379-180.449c0.763,0,1.38,0.617,1.38,1.38c0,0.762-0.617,1.379-1.38,1.379
		c-0.762,0-1.379-0.617-1.379-1.379C142-179.831,142.617-180.449,143.379-180.449z"/>
	<circle fill="#C1272D" cx="156.62" cy="-179.069" r="1.379"/>
	<path fill="#0071BC" d="M146.343-184.706c0.539,0.539,0.539,1.412,0,1.95c-0.539,0.539-1.412,0.539-1.951,0
		c-0.539-0.538-0.539-1.411,0-1.95C144.931-185.244,145.804-185.244,146.343-184.706z"/>
	<path fill="#C1272D" d="M155.706-175.342c0.538,0.538,0.538,1.412,0,1.95c-0.539,0.539-1.412,0.539-1.951,0
		c-0.539-0.539-0.539-1.413,0-1.951S155.167-175.881,155.706-175.342z"/>
	<circle fill="#0071BC" cx="145.27" cy="-174.367" r="1.379"/>
	<path fill="#C1272D" d="M153.658-184.706c0.538-0.539,1.411-0.539,1.949,0c0.539,0.539,0.539,1.412,0,1.951
		c-0.538,0.539-1.411,0.539-1.949,0C153.119-183.293,153.119-184.167,153.658-184.706z"/>
</g>
<g>
	<g>
		<path d="M86.243-208.843c-0.714,0-1.295-0.581-1.295-1.294c0-0.714,0.581-1.294,1.295-1.294c0.713,0,1.294,0.581,1.294,1.294
			S86.956-208.843,86.243-208.843z"/>
		<path d="M86.243-211.347c0.666,0,1.209,0.542,1.209,1.209c0,0.667-0.543,1.209-1.209,1.209c-0.667,0-1.21-0.542-1.21-1.209
			S85.576-211.347,86.243-211.347 M86.243-211.517c-0.762,0-1.38,0.618-1.38,1.379s0.618,1.379,1.38,1.379s1.379-0.617,1.379-1.379
			S87.005-211.517,86.243-211.517L86.243-211.517z"/>
	</g>
	<g>
		<path d="M86.243-195.602c-0.714,0-1.295-0.581-1.295-1.294s0.581-1.294,1.295-1.294c0.713,0,1.294,0.581,1.294,1.294
			S86.956-195.602,86.243-195.602z"/>
		<path d="M86.243-198.105c0.666,0,1.209,0.542,1.209,1.208c0,0.667-0.543,1.209-1.209,1.209c-0.667,0-1.21-0.542-1.21-1.209
			C85.033-197.563,85.576-198.105,86.243-198.105 M86.243-198.275c-0.762,0-1.38,0.617-1.38,1.378c0,0.762,0.618,1.379,1.38,1.379
			s1.379-0.617,1.379-1.379C87.622-197.658,87.005-198.275,86.243-198.275L86.243-198.275z"/>
	</g>
	<path d="M79.553-204.965c0.763,0,1.38,0.617,1.38,1.38c0,0.762-0.617,1.379-1.38,1.379c-0.762,0-1.379-0.617-1.379-1.379
		C78.174-204.348,78.791-204.965,79.553-204.965z"/>
	<circle cx="92.794" cy="-203.586" r="1.379"/>
	<path d="M82.517-209.222c0.539,0.539,0.539,1.412,0,1.95c-0.539,0.539-1.412,0.539-1.951,0c-0.539-0.538-0.539-1.411,0-1.95
		C81.104-209.761,81.978-209.761,82.517-209.222z"/>
	<path d="M91.88-199.859c0.538,0.538,0.538,1.412,0,1.95c-0.539,0.539-1.412,0.539-1.951,0c-0.539-0.539-0.539-1.413,0-1.951
		S91.341-200.398,91.88-199.859z"/>
	<circle cx="81.443" cy="-198.884" r="1.379"/>
	<path d="M89.832-209.222c0.538-0.539,1.411-0.539,1.949,0c0.539,0.539,0.539,1.412,0,1.951c-0.538,0.539-1.411,0.539-1.949,0
		C89.293-207.81,89.293-208.683,89.832-209.222z"/>
</g>
</svg>
