<?xml version="1.0" encoding="utf-8"?>
<!-- Generator: Adobe Illustrator 15.1.0, SVG Export Plug-In . SVG Version: 6.00 Build 0)  -->
<!DOCTYPE svg PUBLIC "-//W3C//DTD SVG 1.1//EN" "http://www.w3.org/Graphics/SVG/1.1/DTD/svg11.dtd">
<svg version="1.1" id="Calque_1" xmlns="http://www.w3.org/2000/svg" xmlns:xlink="http://www.w3.org/1999/xlink" x="0px" y="0px"
	 width="94.088px" height="94.087px" viewBox="0 0 94.088 94.087" enable-background="new 0 0 94.088 94.087" xml:space="preserve">
<g>
	<g>
		<path fill="#FFFFFF" d="M47.45,15.721c-4.197,0-7.611-3.414-7.611-7.61c0-4.197,3.415-7.611,7.611-7.611
			c4.196,0,7.61,3.415,7.61,7.611C55.061,12.308,51.646,15.721,47.45,15.721z"/>
		<path fill="#CCCCCC" d="M47.45,1c3.921,0,7.11,3.19,7.11,7.111c0,3.92-3.189,7.11-7.11,7.11c-3.921,0-7.111-3.189-7.111-7.11
			C40.339,4.19,43.529,1,47.45,1 M47.45,0c-4.48,0-8.111,3.631-8.111,8.111c0,4.481,3.631,8.11,8.111,8.11
			c4.479,0,8.11-3.629,8.11-8.11C55.561,3.631,51.93,0,47.45,0L47.45,0z"/>
	</g>
	<g>
		<path fill="#FFFFFF" d="M47.45,93.587c-4.197,0-7.611-3.414-7.611-7.611c0-4.195,3.415-7.608,7.611-7.608
			c4.196,0,7.61,3.413,7.61,7.608C55.061,90.173,51.646,93.587,47.45,93.587z"/>
		<path fill="#CCCCCC" d="M47.45,78.867c3.921,0,7.11,3.188,7.11,7.108c0,3.921-3.189,7.111-7.11,7.111
			c-3.921,0-7.111-3.19-7.111-7.111C40.339,82.056,43.529,78.867,47.45,78.867 M47.45,77.867c-4.48,0-8.111,3.63-8.111,8.108
			c0,4.48,3.631,8.111,8.111,8.111c4.479,0,8.11-3.631,8.11-8.111C55.561,81.497,51.93,77.867,47.45,77.867L47.45,77.867z"/>
	</g>
	<path fill="#0071BC" d="M8.111,38.527c4.481,0,8.109,3.629,8.109,8.111c0,4.481-3.628,8.11-8.109,8.11
		C3.631,54.749,0,51.12,0,46.639C0,42.157,3.631,38.527,8.111,38.527z"/>
	<circle fill="#C1272D" cx="85.978" cy="46.638" r="8.111"/>
	<path fill="#0071BC" d="M25.535,13.492c3.17,3.168,3.17,8.304,0,11.47c-3.169,3.17-8.301,3.17-11.469,0
		c-3.168-3.166-3.168-8.301,0-11.47C17.234,10.325,22.366,10.325,25.535,13.492z"/>
	<path fill="#C1272D" d="M80.596,68.553c3.168,3.165,3.168,8.302,0,11.468c-3.167,3.169-8.303,3.169-11.469,0.003
		c-3.17-3.169-3.17-8.306,0-11.472C72.293,65.383,77.429,65.383,80.596,68.553z"/>
	<circle fill="#0071BC" cx="19.227" cy="74.288" r="8.111"/>
	<path fill="#C1272D" d="M68.555,13.492c3.165-3.167,8.3-3.167,11.465,0c3.169,3.168,3.169,8.304,0,11.471
		c-3.165,3.168-8.3,3.168-11.465-0.001C65.385,21.796,65.385,16.661,68.555,13.492z"/>
</g>
</svg>
