<?xml version="1.0" encoding="utf-8"?>
<!-- Generator: Adobe Illustrator 15.1.0, SVG Export Plug-In . SVG Version: 6.00 Build 0)  -->
<!DOCTYPE svg PUBLIC "-//W3C//DTD SVG 1.1//EN" "http://www.w3.org/Graphics/SVG/1.1/DTD/svg11.dtd">
<svg version="1.1" xmlns="http://www.w3.org/2000/svg" xmlns:xlink="http://www.w3.org/1999/xlink" x="0px" y="0px" width="223.5px"
	 height="31.5px" viewBox="0 0 223.5 31.5" enable-background="new 0 0 223.5 31.5" xml:space="preserve">
<g id="Calque_1" display="none">
	
		<text transform="matrix(1 0 0 1 -0.584 13.7891)" display="inline" fill="#1A171B" font-family="'GothamBold'" font-size="19.0688">LA FRANCE QUI RAME</text>
	
		<text transform="matrix(1 0 0 1 0.5835 26.3027)" display="inline" fill="#1A171B" font-family="'GothamLight'" font-size="11.5008">Militons pour rendre le web plus rapide</text>
</g>
<g id="Calque_2">
	<g>
		<path fill="#1A171B" d="M0,0.155h2.003v7.299h4.54v1.808H0V0.155z"/>
		<path fill="#1A171B" d="M11.174,0.091h1.847l3.902,9.171H14.83l-0.833-2.043h-3.851L9.314,9.262H7.271L11.174,0.091z
			 M13.282,5.451l-1.209-2.953l-1.21,2.953H13.282z"/>
		<path fill="#1A171B" d="M22.231,0.155h6.934v1.809h-4.93v1.964h4.345v1.808h-4.345v3.526h-2.003V0.155z"/>
		<path fill="#1A171B" d="M30.765,0.155h4.163c1.154,0,2.038,0.308,2.654,0.925c0.521,0.52,0.781,1.213,0.781,2.081v0.026
			c0,0.738-0.18,1.338-0.54,1.801c-0.36,0.464-0.831,0.805-1.412,1.021l2.224,3.252h-2.341l-1.951-2.914h-0.026h-1.548v2.914h-2.003
			V0.155z M34.797,4.579c0.495,0,0.874-0.117,1.139-0.351c0.264-0.234,0.396-0.546,0.396-0.937V3.265
			c0-0.434-0.139-0.759-0.417-0.976c-0.277-0.217-0.663-0.326-1.157-0.326h-1.991v2.615H34.797z"/>
		<path fill="#1A171B" d="M43.292,0.091h1.848l3.902,9.171h-2.094l-0.832-2.043h-3.851l-0.833,2.043h-2.043L43.292,0.091z
			 M45.399,5.451l-1.21-2.953L42.98,5.451H45.399z"/>
		<path fill="#1A171B" d="M50.447,0.155h1.847l4.267,5.607V0.155h1.977v9.107h-1.704l-4.41-5.79v5.79h-1.977V0.155z"/>
		<path fill="#1A171B" d="M64.99,9.418c-0.668,0-1.288-0.122-1.86-0.365c-0.572-0.242-1.066-0.574-1.483-0.995
			c-0.417-0.421-0.742-0.917-0.976-1.489S60.32,5.385,60.32,4.735V4.709c0-0.651,0.117-1.26,0.351-1.828
			c0.234-0.568,0.559-1.067,0.976-1.496c0.417-0.43,0.915-0.769,1.496-1.016C63.724,0.123,64.366,0,65.068,0
			c0.424,0,0.813,0.034,1.164,0.104c0.352,0.07,0.67,0.165,0.956,0.286c0.286,0.122,0.551,0.269,0.794,0.442
			c0.242,0.173,0.468,0.364,0.676,0.572l-1.275,1.47c-0.355-0.32-0.718-0.572-1.086-0.754c-0.369-0.182-0.783-0.273-1.243-0.273
			c-0.381,0-0.735,0.073-1.06,0.221C63.67,2.215,63.39,2.419,63.156,2.68c-0.234,0.26-0.416,0.561-0.547,0.903
			c-0.13,0.343-0.195,0.71-0.195,1.1v0.027c0,0.39,0.065,0.759,0.195,1.105c0.131,0.347,0.311,0.651,0.54,0.911
			c0.229,0.261,0.508,0.466,0.833,0.619c0.325,0.151,0.683,0.227,1.073,0.227c0.521,0,0.96-0.095,1.321-0.285
			c0.359-0.191,0.717-0.451,1.073-0.781l1.275,1.288c-0.234,0.252-0.477,0.477-0.729,0.677c-0.251,0.199-0.527,0.37-0.826,0.514
			c-0.299,0.143-0.626,0.251-0.982,0.325C65.831,9.381,65.433,9.418,64.99,9.418z"/>
		<path fill="#1A171B" d="M70.323,0.155h6.856v1.783h-4.878v1.847h4.293v1.782h-4.293V7.48h4.944v1.782h-6.921V0.155z"/>
		<path fill="#1A171B" d="M90.07,8.637c-0.39,0.252-0.811,0.445-1.262,0.579c-0.451,0.135-0.933,0.202-1.444,0.202
			c-0.702,0-1.348-0.123-1.938-0.371c-0.59-0.247-1.099-0.581-1.528-1.002c-0.429-0.42-0.763-0.915-1.001-1.483
			c-0.239-0.567-0.358-1.177-0.358-1.827V4.709c0-0.651,0.121-1.26,0.364-1.828c0.243-0.568,0.579-1.067,1.008-1.496
			c0.43-0.43,0.941-0.769,1.535-1.016S86.688,0,87.391,0s1.349,0.123,1.938,0.37c0.59,0.247,1.1,0.582,1.529,1.002
			c0.43,0.421,0.763,0.916,1.001,1.483c0.239,0.568,0.358,1.177,0.358,1.827v0.027c0,0.477-0.07,0.936-0.208,1.378
			C91.87,6.53,91.67,6.942,91.41,7.323l0.937,0.794l-1.275,1.418L90.07,8.637z M87.391,7.57c0.425,0,0.824-0.082,1.196-0.247
			l-1.482-1.262l1.275-1.431l1.496,1.353c0.165-0.365,0.247-0.781,0.247-1.249V4.709c0-0.391-0.067-0.759-0.202-1.106
			c-0.134-0.347-0.325-0.651-0.572-0.911c-0.247-0.26-0.54-0.466-0.878-0.618c-0.338-0.151-0.707-0.227-1.106-0.227
			c-0.407,0-0.778,0.073-1.112,0.221c-0.333,0.147-0.62,0.351-0.858,0.611c-0.238,0.26-0.425,0.561-0.559,0.903
			c-0.135,0.343-0.202,0.71-0.202,1.1v0.027c0,0.39,0.067,0.759,0.202,1.105c0.134,0.347,0.325,0.651,0.572,0.911
			c0.247,0.261,0.538,0.466,0.872,0.619C86.612,7.495,86.983,7.57,87.391,7.57z"/>
		<path fill="#1A171B" d="M97.797,9.405c-1.223,0-2.185-0.338-2.888-1.015c-0.702-0.676-1.053-1.687-1.053-3.031V0.155h2.003v5.152
			c0,0.745,0.173,1.307,0.52,1.684c0.347,0.378,0.829,0.566,1.444,0.566c0.616,0,1.097-0.182,1.444-0.546
			c0.347-0.364,0.52-0.911,0.52-1.64V0.155h2.003v5.139c0,0.694-0.093,1.297-0.28,1.808c-0.187,0.512-0.453,0.939-0.799,1.282
			c-0.348,0.343-0.768,0.599-1.262,0.768C98.955,9.321,98.404,9.405,97.797,9.405z"/>
		<path fill="#1A171B" d="M103.924,0.155h2.003v9.107h-2.003V0.155z"/>
		<path fill="#1A171B" d="M112.106,0.155h4.163c1.153,0,2.038,0.308,2.653,0.925c0.521,0.52,0.781,1.213,0.781,2.081v0.026
			c0,0.738-0.18,1.338-0.54,1.801c-0.36,0.464-0.831,0.805-1.412,1.021l2.225,3.252h-2.342l-1.951-2.914h-0.026h-1.548v2.914h-2.004
			V0.155z M116.14,4.579c0.494,0,0.873-0.117,1.138-0.351c0.265-0.234,0.397-0.546,0.397-0.937V3.265
			c0-0.434-0.14-0.759-0.417-0.976c-0.278-0.217-0.664-0.326-1.158-0.326h-1.99v2.615H116.14z"/>
		<path fill="#1A171B" d="M124.634,0.091h1.847l3.902,9.171h-2.094l-0.832-2.043h-3.851l-0.833,2.043h-2.042L124.634,0.091z
			 M126.742,5.451l-1.21-2.953l-1.21,2.953H126.742z"/>
		<path fill="#1A171B" d="M131.788,0.155h2.16l2.394,3.851l2.394-3.851h2.16v9.107h-1.978V3.316l-2.562,3.891h-0.052l-2.537-3.851
			v5.906h-1.978V0.155z"/>
		<path fill="#1A171B" d="M143.079,0.155h6.856v1.783h-4.879v1.847h4.293v1.782h-4.293V7.48H150v1.782h-6.921V0.155z"/>
	</g>
	<g>
		<path fill="#1A171B" d="M0.52,12.307h0.384l2.205,3.249l2.205-3.249h0.384v5.492H5.29v-4.771L3.117,16.19H3.086l-2.174-3.162
			v4.771H0.52V12.307z"/>
		<path fill="#1A171B" d="M7.252,12.229H7.73v0.525H7.252V12.229z M7.299,13.798h0.385v4.001H7.299V13.798z"/>
		<path fill="#1A171B" d="M9.252,12.071h0.385v5.728H9.252V12.071z"/>
		<path fill="#1A171B" d="M11.158,12.229h0.479v0.525h-0.479V12.229z M11.206,13.798h0.385v4.001h-0.385V13.798z"/>
		<path fill="#1A171B" d="M14.438,17.87c-0.157,0-0.304-0.021-0.439-0.063c-0.137-0.042-0.255-0.108-0.357-0.2
			c-0.102-0.091-0.182-0.207-0.239-0.345c-0.057-0.139-0.086-0.302-0.086-0.49V14.15h-0.581v-0.353h0.581v-1.279h0.384v1.279h1.404
			v0.353h-1.404v2.575c0,0.287,0.074,0.488,0.224,0.603c0.149,0.114,0.341,0.172,0.577,0.172c0.099,0,0.193-0.01,0.283-0.029
			c0.088-0.02,0.191-0.055,0.306-0.104v0.361c-0.105,0.047-0.208,0.083-0.31,0.106C14.677,17.857,14.563,17.87,14.438,17.87z"/>
		<path fill="#1A171B" d="M18.016,17.893c-0.298,0-0.571-0.056-0.82-0.168c-0.249-0.112-0.464-0.263-0.647-0.451
			c-0.184-0.188-0.326-0.408-0.428-0.659c-0.103-0.251-0.153-0.519-0.153-0.801v-0.015c0-0.283,0.051-0.549,0.153-0.8
			c0.102-0.251,0.246-0.474,0.431-0.667c0.186-0.193,0.404-0.346,0.656-0.458c0.251-0.112,0.525-0.169,0.823-0.169
			c0.298,0,0.571,0.057,0.82,0.169c0.248,0.112,0.464,0.263,0.647,0.451c0.183,0.188,0.326,0.408,0.428,0.659
			c0.102,0.251,0.153,0.518,0.153,0.8v0.016c0,0.282-0.051,0.549-0.153,0.8c-0.102,0.251-0.246,0.473-0.431,0.667
			c-0.187,0.194-0.404,0.347-0.655,0.459C18.588,17.837,18.314,17.893,18.016,17.893z M18.031,17.524
			c0.237,0,0.456-0.045,0.658-0.137s0.376-0.214,0.521-0.367c0.145-0.154,0.257-0.334,0.339-0.543
			c0.082-0.208,0.122-0.43,0.122-0.664v-0.015c0-0.24-0.042-0.465-0.126-0.676c-0.084-0.211-0.201-0.395-0.351-0.551
			c-0.149-0.156-0.326-0.279-0.528-0.367c-0.202-0.089-0.419-0.133-0.65-0.133c-0.236,0-0.456,0.046-0.658,0.137
			c-0.202,0.091-0.376,0.214-0.521,0.367c-0.145,0.154-0.257,0.334-0.339,0.543s-0.122,0.43-0.122,0.664v0.016
			c0,0.239,0.042,0.464,0.126,0.675s0.201,0.395,0.351,0.551c0.149,0.156,0.326,0.278,0.528,0.367
			C17.583,17.48,17.8,17.524,18.031,17.524z"/>
		<path fill="#1A171B" d="M21.264,13.798h0.385v0.745c0.136-0.235,0.319-0.435,0.549-0.597c0.23-0.162,0.528-0.243,0.895-0.243
			c0.25,0,0.475,0.041,0.674,0.122c0.199,0.082,0.367,0.195,0.506,0.342c0.139,0.146,0.244,0.32,0.314,0.521
			c0.07,0.202,0.105,0.423,0.105,0.664v2.448h-0.384v-2.377c0-0.414-0.11-0.744-0.33-0.993c-0.22-0.248-0.534-0.372-0.941-0.372
			c-0.199,0-0.382,0.035-0.549,0.105c-0.167,0.071-0.314,0.168-0.439,0.294c-0.125,0.125-0.224,0.276-0.294,0.451
			c-0.071,0.175-0.106,0.368-0.106,0.577v2.314h-0.385V13.798z"/>
		<path fill="#1A171B" d="M27.368,17.877c-0.293,0-0.586-0.055-0.878-0.165c-0.293-0.109-0.547-0.25-0.762-0.424l0.228-0.307
			c0.22,0.168,0.45,0.297,0.691,0.389c0.241,0.092,0.489,0.137,0.746,0.137c0.271,0,0.5-0.068,0.686-0.203
			c0.187-0.136,0.279-0.321,0.279-0.556v-0.016c0-0.114-0.029-0.214-0.086-0.298c-0.058-0.083-0.136-0.156-0.235-0.219
			c-0.1-0.062-0.212-0.115-0.337-0.156s-0.259-0.083-0.4-0.125c-0.162-0.047-0.325-0.097-0.49-0.148
			c-0.165-0.053-0.312-0.119-0.443-0.2c-0.131-0.08-0.237-0.181-0.317-0.301c-0.082-0.121-0.122-0.269-0.122-0.446v-0.016
			c0-0.162,0.033-0.31,0.098-0.442s0.156-0.25,0.271-0.349c0.115-0.099,0.253-0.176,0.416-0.231s0.34-0.083,0.534-0.083
			c0.24,0,0.488,0.04,0.741,0.121c0.254,0.08,0.48,0.189,0.679,0.327l-0.204,0.321c-0.183-0.12-0.381-0.217-0.592-0.291
			c-0.212-0.073-0.425-0.109-0.64-0.109c-0.277,0-0.498,0.066-0.663,0.2c-0.165,0.132-0.247,0.298-0.247,0.496V14.8
			c0,0.11,0.031,0.205,0.094,0.286c0.063,0.081,0.146,0.15,0.248,0.208c0.102,0.057,0.221,0.107,0.357,0.152
			c0.136,0.044,0.274,0.087,0.416,0.129c0.163,0.047,0.322,0.098,0.479,0.153c0.157,0.054,0.298,0.125,0.423,0.211
			s0.227,0.189,0.302,0.309c0.076,0.12,0.113,0.269,0.113,0.446v0.016c0,0.177-0.035,0.337-0.105,0.481
			c-0.071,0.144-0.168,0.266-0.294,0.368c-0.126,0.102-0.272,0.18-0.439,0.234C27.742,17.85,27.562,17.877,27.368,17.877z"/>
		<path fill="#1A171B" d="M32.326,13.798h0.385v0.894c0.083-0.13,0.18-0.255,0.29-0.376c0.109-0.121,0.231-0.225,0.364-0.313
			c0.134-0.089,0.283-0.161,0.448-0.216c0.165-0.055,0.346-0.083,0.545-0.083c0.24,0,0.477,0.047,0.71,0.142
			c0.232,0.094,0.44,0.23,0.624,0.408c0.183,0.178,0.331,0.396,0.443,0.655c0.112,0.259,0.168,0.551,0.168,0.875v0.016
			c0,0.324-0.056,0.616-0.168,0.875c-0.113,0.259-0.26,0.479-0.443,0.659s-0.391,0.319-0.624,0.416
			c-0.233,0.097-0.47,0.145-0.71,0.145c-0.199,0-0.382-0.026-0.549-0.078c-0.168-0.053-0.318-0.124-0.451-0.212
			c-0.134-0.089-0.254-0.191-0.361-0.307c-0.107-0.115-0.203-0.235-0.286-0.36v2.118h-0.385V13.798z M34.323,17.524
			c0.22,0,0.426-0.04,0.618-0.118c0.191-0.078,0.358-0.19,0.499-0.337c0.142-0.146,0.253-0.326,0.334-0.538
			c0.082-0.212,0.122-0.451,0.122-0.718v-0.015c0-0.262-0.042-0.5-0.125-0.714s-0.198-0.396-0.342-0.545
			c-0.144-0.149-0.312-0.265-0.503-0.346c-0.191-0.081-0.392-0.122-0.602-0.122s-0.413,0.042-0.609,0.125
			c-0.197,0.084-0.372,0.202-0.523,0.354c-0.152,0.151-0.274,0.332-0.366,0.542c-0.092,0.209-0.138,0.442-0.138,0.698v0.016
			c0,0.256,0.046,0.491,0.138,0.702c0.091,0.212,0.213,0.393,0.366,0.541c0.151,0.149,0.326,0.266,0.523,0.349
			C33.91,17.482,34.113,17.524,34.323,17.524z"/>
		<path fill="#1A171B" d="M39.277,17.893c-0.298,0-0.571-0.056-0.82-0.168c-0.248-0.112-0.464-0.263-0.647-0.451
			c-0.183-0.188-0.326-0.408-0.428-0.659c-0.102-0.251-0.153-0.519-0.153-0.801v-0.015c0-0.283,0.051-0.549,0.153-0.8
			c0.102-0.251,0.246-0.474,0.432-0.667c0.185-0.193,0.404-0.346,0.655-0.458s0.526-0.169,0.824-0.169s0.571,0.057,0.82,0.169
			s0.464,0.263,0.647,0.451c0.184,0.188,0.326,0.408,0.428,0.659c0.102,0.251,0.153,0.518,0.153,0.8v0.016
			c0,0.282-0.051,0.549-0.153,0.8c-0.102,0.251-0.246,0.473-0.431,0.667c-0.186,0.194-0.404,0.347-0.655,0.459
			C39.85,17.837,39.576,17.893,39.277,17.893z M39.293,17.524c0.236,0,0.456-0.045,0.658-0.137s0.376-0.214,0.521-0.367
			c0.145-0.154,0.258-0.334,0.339-0.543c0.081-0.208,0.122-0.43,0.122-0.664v-0.015c0-0.24-0.042-0.465-0.126-0.676
			c-0.084-0.211-0.201-0.395-0.351-0.551c-0.15-0.156-0.326-0.279-0.528-0.367c-0.203-0.089-0.419-0.133-0.65-0.133
			c-0.237,0-0.456,0.046-0.659,0.137c-0.202,0.091-0.375,0.214-0.52,0.367c-0.145,0.154-0.258,0.334-0.339,0.543
			c-0.082,0.208-0.122,0.43-0.122,0.664v0.016c0,0.239,0.042,0.464,0.126,0.675s0.201,0.395,0.351,0.551
			c0.15,0.156,0.326,0.278,0.528,0.367C38.845,17.48,39.062,17.524,39.293,17.524z"/>
		<path fill="#1A171B" d="M44.048,17.893c-0.251,0-0.476-0.041-0.675-0.121c-0.199-0.082-0.367-0.195-0.506-0.342
			c-0.138-0.146-0.243-0.32-0.313-0.521c-0.071-0.201-0.106-0.423-0.106-0.663v-2.447h0.384v2.377c0,0.413,0.11,0.744,0.33,0.992
			c0.22,0.249,0.534,0.373,0.941,0.373c0.193,0,0.375-0.035,0.545-0.106c0.17-0.07,0.318-0.168,0.444-0.293
			c0.125-0.126,0.223-0.276,0.294-0.451c0.07-0.175,0.105-0.368,0.105-0.577v-2.314h0.385v4.001h-0.385v-0.746
			c-0.136,0.236-0.319,0.434-0.549,0.596C44.712,17.812,44.414,17.893,44.048,17.893z"/>
		<path fill="#1A171B" d="M47.335,13.798h0.385v1.137c0.078-0.177,0.177-0.342,0.298-0.494c0.121-0.152,0.256-0.281,0.408-0.388
			c0.151-0.107,0.317-0.188,0.498-0.243c0.18-0.055,0.37-0.08,0.569-0.075v0.424h-0.039c-0.23,0-0.45,0.043-0.659,0.13
			c-0.209,0.086-0.394,0.214-0.553,0.384c-0.16,0.17-0.287,0.38-0.38,0.628c-0.094,0.249-0.141,0.535-0.141,0.859v1.64h-0.385
			V13.798z"/>
		<path fill="#1A171B" d="M52.827,13.798h0.385v1.137c0.078-0.177,0.178-0.342,0.298-0.494c0.12-0.152,0.256-0.281,0.407-0.388
			c0.152-0.107,0.318-0.188,0.499-0.243c0.181-0.055,0.37-0.08,0.569-0.075v0.424h-0.039c-0.23,0-0.45,0.043-0.659,0.13
			c-0.209,0.086-0.394,0.214-0.553,0.384c-0.16,0.17-0.286,0.38-0.38,0.628c-0.094,0.249-0.141,0.535-0.141,0.859v1.64h-0.385
			V13.798z"/>
		<path fill="#1A171B" d="M57.656,17.893c-0.262,0-0.512-0.049-0.751-0.148c-0.238-0.099-0.448-0.24-0.629-0.424
			c-0.181-0.183-0.324-0.403-0.429-0.659c-0.105-0.256-0.157-0.541-0.157-0.855V15.79c0-0.288,0.048-0.558,0.145-0.812
			s0.23-0.474,0.4-0.663c0.17-0.188,0.37-0.337,0.6-0.447c0.23-0.11,0.481-0.165,0.753-0.165c0.282,0,0.536,0.054,0.761,0.161
			c0.225,0.107,0.417,0.255,0.577,0.443c0.16,0.188,0.283,0.409,0.369,0.663c0.086,0.254,0.129,0.53,0.129,0.828
			c0,0.037,0,0.064,0,0.083c0,0.018-0.002,0.042-0.008,0.074h-3.318c0.016,0.25,0.071,0.472,0.165,0.665
			c0.094,0.192,0.212,0.356,0.354,0.492c0.142,0.135,0.303,0.238,0.484,0.308c0.181,0.07,0.371,0.105,0.57,0.105
			c0.314,0,0.581-0.06,0.798-0.181c0.218-0.121,0.411-0.27,0.579-0.447l0.267,0.235c-0.205,0.22-0.437,0.402-0.696,0.545
			C58.36,17.821,58.039,17.893,57.656,17.893z M59.017,15.609c-0.016-0.204-0.057-0.398-0.122-0.584
			c-0.065-0.186-0.157-0.351-0.275-0.494c-0.118-0.144-0.264-0.259-0.437-0.346c-0.173-0.086-0.375-0.129-0.605-0.129
			c-0.2,0-0.386,0.039-0.559,0.117c-0.173,0.079-0.324,0.188-0.452,0.326c-0.128,0.139-0.235,0.303-0.318,0.495
			c-0.084,0.19-0.134,0.396-0.149,0.615H59.017z"/>
		<path fill="#1A171B" d="M60.547,13.798h0.385v0.745c0.136-0.235,0.319-0.435,0.549-0.597c0.23-0.162,0.528-0.243,0.895-0.243
			c0.251,0,0.476,0.041,0.675,0.122c0.199,0.082,0.368,0.195,0.506,0.342c0.139,0.146,0.244,0.32,0.314,0.521
			c0.07,0.202,0.105,0.423,0.105,0.664v2.448h-0.385v-2.377c0-0.414-0.109-0.744-0.329-0.993c-0.22-0.248-0.533-0.372-0.941-0.372
			c-0.199,0-0.382,0.035-0.549,0.105c-0.167,0.071-0.313,0.168-0.439,0.294c-0.126,0.125-0.224,0.276-0.294,0.451
			c-0.071,0.175-0.106,0.368-0.106,0.577v2.314h-0.385V13.798z"/>
		<path fill="#1A171B" d="M67.043,17.893c-0.241,0-0.478-0.046-0.71-0.141c-0.232-0.094-0.44-0.23-0.624-0.408
			s-0.331-0.396-0.443-0.655c-0.113-0.259-0.169-0.551-0.169-0.875v-0.015c0-0.325,0.056-0.617,0.169-0.875
			c0.112-0.259,0.26-0.479,0.443-0.66c0.183-0.18,0.391-0.318,0.624-0.415c0.233-0.097,0.47-0.146,0.71-0.146
			c0.199,0,0.382,0.026,0.549,0.078c0.167,0.053,0.318,0.124,0.452,0.212c0.133,0.089,0.253,0.191,0.36,0.306
			c0.107,0.114,0.203,0.235,0.287,0.36v-2.589h0.384v5.728h-0.384v-0.895c-0.089,0.131-0.187,0.256-0.294,0.377
			c-0.107,0.12-0.228,0.224-0.361,0.313c-0.133,0.089-0.282,0.161-0.447,0.216C67.424,17.865,67.242,17.893,67.043,17.893z
			 M67.079,17.524c0.209,0,0.413-0.042,0.61-0.126c0.196-0.083,0.371-0.201,0.522-0.354c0.152-0.151,0.274-0.332,0.366-0.541
			c0.091-0.209,0.138-0.442,0.138-0.698V15.79c0-0.256-0.046-0.49-0.138-0.702s-0.213-0.393-0.366-0.542
			c-0.152-0.148-0.326-0.265-0.522-0.349c-0.197-0.083-0.4-0.125-0.61-0.125c-0.22,0-0.426,0.04-0.617,0.118
			c-0.192,0.078-0.358,0.191-0.5,0.338c-0.141,0.146-0.252,0.325-0.334,0.537c-0.081,0.212-0.122,0.451-0.122,0.718v0.016
			c0,0.262,0.042,0.5,0.126,0.714c0.083,0.215,0.197,0.396,0.342,0.545c0.145,0.149,0.312,0.265,0.503,0.345
			C66.668,17.483,66.869,17.524,67.079,17.524z"/>
		<path fill="#1A171B" d="M70.534,13.798h0.385v1.137c0.078-0.177,0.177-0.342,0.298-0.494c0.12-0.152,0.256-0.281,0.408-0.388
			c0.152-0.107,0.318-0.188,0.499-0.243c0.18-0.055,0.37-0.08,0.569-0.075v0.424h-0.04c-0.23,0-0.45,0.043-0.659,0.13
			c-0.209,0.086-0.393,0.214-0.553,0.384c-0.16,0.17-0.287,0.38-0.38,0.628c-0.094,0.249-0.141,0.535-0.141,0.859v1.64h-0.385
			V13.798z"/>
		<path fill="#1A171B" d="M75.364,17.893c-0.262,0-0.512-0.049-0.75-0.148c-0.239-0.099-0.448-0.24-0.629-0.424
			c-0.181-0.183-0.324-0.403-0.429-0.659c-0.105-0.256-0.157-0.541-0.157-0.855V15.79c0-0.288,0.048-0.558,0.145-0.812
			s0.23-0.474,0.4-0.663c0.17-0.188,0.37-0.337,0.6-0.447c0.23-0.11,0.481-0.165,0.753-0.165c0.283,0,0.537,0.054,0.762,0.161
			c0.225,0.107,0.417,0.255,0.576,0.443c0.16,0.188,0.283,0.409,0.369,0.663c0.086,0.254,0.13,0.53,0.13,0.828
			c0,0.037,0,0.064,0,0.083c0,0.018-0.002,0.042-0.008,0.074h-3.318c0.016,0.25,0.071,0.472,0.165,0.665
			c0.095,0.192,0.212,0.356,0.354,0.492c0.142,0.135,0.303,0.238,0.484,0.308s0.371,0.105,0.57,0.105
			c0.314,0,0.581-0.06,0.798-0.181s0.411-0.27,0.578-0.447l0.267,0.235c-0.205,0.22-0.437,0.402-0.695,0.545
			C76.068,17.821,75.747,17.893,75.364,17.893z M76.725,15.609c-0.016-0.204-0.057-0.398-0.122-0.584
			c-0.066-0.186-0.158-0.351-0.275-0.494c-0.118-0.144-0.264-0.259-0.437-0.346c-0.173-0.086-0.375-0.129-0.605-0.129
			c-0.2,0-0.386,0.039-0.559,0.117c-0.173,0.079-0.323,0.188-0.452,0.326c-0.128,0.139-0.234,0.303-0.318,0.495
			c-0.084,0.19-0.134,0.396-0.149,0.615H76.725z"/>
		<path fill="#1A171B" d="M80.664,12.071h0.384v5.728h-0.384V12.071z"/>
		<path fill="#1A171B" d="M84.253,17.893c-0.262,0-0.512-0.049-0.751-0.148c-0.239-0.099-0.448-0.24-0.629-0.424
			c-0.181-0.183-0.324-0.403-0.429-0.659c-0.104-0.256-0.157-0.541-0.157-0.855V15.79c0-0.288,0.048-0.558,0.146-0.812
			c0.096-0.254,0.23-0.474,0.4-0.663c0.17-0.188,0.37-0.337,0.6-0.447c0.23-0.11,0.481-0.165,0.753-0.165
			c0.282,0,0.536,0.054,0.761,0.161c0.225,0.107,0.417,0.255,0.577,0.443c0.159,0.188,0.282,0.409,0.369,0.663
			c0.086,0.254,0.129,0.53,0.129,0.828c0,0.037,0,0.064,0,0.083c0,0.018-0.002,0.042-0.008,0.074h-3.319
			c0.016,0.25,0.071,0.472,0.166,0.665c0.094,0.192,0.212,0.356,0.354,0.492c0.142,0.135,0.303,0.238,0.484,0.308
			s0.371,0.105,0.57,0.105c0.315,0,0.581-0.06,0.799-0.181s0.41-0.27,0.578-0.447l0.267,0.235c-0.204,0.22-0.436,0.402-0.695,0.545
			C84.957,17.821,84.636,17.893,84.253,17.893z M85.614,15.609c-0.016-0.204-0.056-0.398-0.122-0.584
			c-0.066-0.186-0.158-0.351-0.275-0.494c-0.118-0.144-0.264-0.259-0.437-0.346c-0.173-0.086-0.375-0.129-0.606-0.129
			c-0.2,0-0.385,0.039-0.559,0.117c-0.173,0.079-0.324,0.188-0.453,0.326c-0.128,0.139-0.234,0.303-0.318,0.495
			c-0.083,0.19-0.134,0.396-0.149,0.615H85.614z"/>
		<path fill="#1A171B" d="M89.152,13.798h0.432l1.208,3.515L92,13.781h0.307l1.208,3.531l1.208-3.515h0.416l-1.467,4.032h-0.33
			l-1.192-3.428l-1.201,3.428H90.62L89.152,13.798z"/>
		<path fill="#1A171B" d="M97.944,17.893c-0.262,0-0.513-0.049-0.751-0.148c-0.239-0.099-0.448-0.24-0.629-0.424
			c-0.181-0.183-0.324-0.403-0.428-0.659c-0.105-0.256-0.158-0.541-0.158-0.855V15.79c0-0.288,0.048-0.558,0.146-0.812
			c0.097-0.254,0.23-0.474,0.4-0.663c0.17-0.188,0.37-0.337,0.6-0.447c0.23-0.11,0.481-0.165,0.753-0.165
			c0.282,0,0.536,0.054,0.761,0.161c0.225,0.107,0.417,0.255,0.577,0.443c0.159,0.188,0.282,0.409,0.369,0.663
			c0.086,0.254,0.129,0.53,0.129,0.828c0,0.037,0,0.064,0,0.083c0,0.018-0.003,0.042-0.008,0.074h-3.319
			c0.016,0.25,0.071,0.472,0.166,0.665c0.094,0.192,0.212,0.356,0.354,0.492c0.141,0.135,0.302,0.238,0.483,0.308
			c0.181,0.07,0.371,0.105,0.57,0.105c0.315,0,0.582-0.06,0.799-0.181c0.218-0.121,0.41-0.27,0.578-0.447l0.267,0.235
			c-0.204,0.22-0.436,0.402-0.695,0.545C98.648,17.821,98.327,17.893,97.944,17.893z M99.305,15.609
			c-0.016-0.204-0.057-0.398-0.122-0.584c-0.065-0.186-0.157-0.351-0.275-0.494c-0.118-0.144-0.263-0.259-0.437-0.346
			c-0.173-0.086-0.375-0.129-0.605-0.129c-0.2,0-0.385,0.039-0.559,0.117c-0.173,0.079-0.324,0.188-0.453,0.326
			c-0.128,0.139-0.235,0.303-0.318,0.495c-0.083,0.19-0.134,0.396-0.15,0.615H99.305z"/>
		<path fill="#1A171B" d="M102.867,17.893c-0.199,0-0.382-0.026-0.549-0.078c-0.167-0.053-0.318-0.124-0.451-0.212
			c-0.134-0.089-0.254-0.191-0.361-0.307c-0.107-0.115-0.203-0.235-0.286-0.36v0.863h-0.385v-5.728h0.385v2.62
			c0.083-0.13,0.18-0.255,0.29-0.376c0.11-0.121,0.231-0.225,0.365-0.313c0.134-0.089,0.282-0.161,0.447-0.216
			c0.165-0.055,0.347-0.083,0.545-0.083c0.24,0,0.477,0.047,0.71,0.142c0.232,0.094,0.44,0.23,0.624,0.408
			c0.183,0.178,0.331,0.396,0.443,0.655s0.169,0.551,0.169,0.875v0.016c0,0.324-0.057,0.616-0.169,0.875
			c-0.112,0.259-0.26,0.479-0.443,0.659c-0.184,0.181-0.391,0.319-0.624,0.416C103.344,17.845,103.107,17.893,102.867,17.893z
			 M102.831,17.524c0.22,0,0.427-0.04,0.618-0.118c0.191-0.078,0.357-0.19,0.499-0.337s0.253-0.326,0.334-0.538
			c0.081-0.212,0.122-0.451,0.122-0.718v-0.015c0-0.262-0.042-0.5-0.126-0.714c-0.083-0.214-0.198-0.396-0.342-0.545
			c-0.144-0.149-0.312-0.265-0.503-0.346s-0.392-0.122-0.602-0.122c-0.209,0-0.413,0.042-0.609,0.125
			c-0.196,0.084-0.371,0.202-0.522,0.354c-0.152,0.151-0.274,0.332-0.366,0.542c-0.091,0.209-0.138,0.442-0.138,0.698v0.016
			c0,0.256,0.046,0.491,0.138,0.702c0.092,0.212,0.214,0.393,0.366,0.541c0.151,0.149,0.326,0.266,0.522,0.349
			C102.418,17.482,102.622,17.524,102.831,17.524z"/>
		<path fill="#1A171B" d="M108.366,13.798h0.385v0.894c0.083-0.13,0.18-0.255,0.29-0.376c0.11-0.121,0.231-0.225,0.365-0.313
			c0.134-0.089,0.283-0.161,0.447-0.216c0.165-0.055,0.346-0.083,0.545-0.083c0.24,0,0.478,0.047,0.71,0.142
			c0.232,0.094,0.44,0.23,0.623,0.408c0.184,0.178,0.331,0.396,0.444,0.655c0.112,0.259,0.168,0.551,0.168,0.875v0.016
			c0,0.324-0.056,0.616-0.168,0.875c-0.113,0.259-0.26,0.479-0.444,0.659c-0.183,0.181-0.391,0.319-0.623,0.416
			c-0.233,0.097-0.47,0.145-0.71,0.145c-0.199,0-0.382-0.026-0.549-0.078c-0.167-0.053-0.318-0.124-0.451-0.212
			c-0.134-0.089-0.254-0.191-0.361-0.307c-0.107-0.115-0.203-0.235-0.286-0.36v2.118h-0.385V13.798z M110.363,17.524
			c0.22,0,0.426-0.04,0.617-0.118c0.191-0.078,0.358-0.19,0.5-0.337s0.253-0.326,0.334-0.538c0.082-0.212,0.122-0.451,0.122-0.718
			v-0.015c0-0.262-0.042-0.5-0.126-0.714c-0.083-0.214-0.198-0.396-0.342-0.545c-0.144-0.149-0.312-0.265-0.503-0.346
			s-0.392-0.122-0.602-0.122s-0.413,0.042-0.61,0.125c-0.196,0.084-0.371,0.202-0.523,0.354s-0.274,0.332-0.365,0.542
			c-0.092,0.209-0.138,0.442-0.138,0.698v0.016c0,0.256,0.045,0.491,0.138,0.702c0.091,0.212,0.213,0.393,0.365,0.541
			c0.152,0.149,0.327,0.266,0.523,0.349C109.95,17.482,110.153,17.524,110.363,17.524z"/>
		<path fill="#1A171B" d="M113.6,12.071h0.385v5.728H113.6V12.071z"/>
		<path fill="#1A171B" d="M117.02,17.893c-0.251,0-0.476-0.041-0.675-0.121c-0.199-0.082-0.367-0.195-0.506-0.342
			c-0.139-0.146-0.243-0.32-0.314-0.521c-0.07-0.201-0.105-0.423-0.105-0.663v-2.447h0.384v2.377c0,0.413,0.11,0.744,0.33,0.992
			c0.22,0.249,0.533,0.373,0.941,0.373c0.193,0,0.375-0.035,0.545-0.106c0.17-0.07,0.318-0.168,0.443-0.293
			c0.125-0.126,0.224-0.276,0.294-0.451s0.106-0.368,0.106-0.577v-2.314h0.384v4.001h-0.384v-0.746
			c-0.137,0.236-0.319,0.434-0.549,0.596C117.685,17.812,117.386,17.893,117.02,17.893z"/>
		<path fill="#1A171B" d="M121.602,17.877c-0.292,0-0.585-0.055-0.879-0.165c-0.293-0.109-0.546-0.25-0.76-0.424l0.228-0.307
			c0.22,0.168,0.449,0.297,0.69,0.389c0.24,0.092,0.489,0.137,0.745,0.137c0.272,0,0.5-0.068,0.687-0.203
			c0.186-0.136,0.278-0.321,0.278-0.556v-0.016c0-0.114-0.029-0.214-0.086-0.298c-0.058-0.083-0.136-0.156-0.236-0.219
			c-0.099-0.062-0.212-0.115-0.337-0.156c-0.125-0.042-0.26-0.083-0.4-0.125c-0.162-0.047-0.325-0.097-0.49-0.148
			c-0.165-0.053-0.312-0.119-0.443-0.2c-0.13-0.08-0.237-0.181-0.318-0.301c-0.082-0.121-0.122-0.269-0.122-0.446v-0.016
			c0-0.162,0.033-0.31,0.099-0.442c0.065-0.133,0.155-0.25,0.27-0.349s0.253-0.176,0.416-0.231c0.163-0.055,0.34-0.083,0.534-0.083
			c0.24,0,0.487,0.04,0.741,0.121c0.254,0.08,0.479,0.189,0.679,0.327l-0.204,0.321c-0.184-0.12-0.38-0.217-0.593-0.291
			c-0.211-0.073-0.425-0.109-0.639-0.109c-0.277,0-0.498,0.066-0.663,0.2c-0.165,0.132-0.247,0.298-0.247,0.496V14.8
			c0,0.11,0.03,0.205,0.093,0.286s0.145,0.15,0.248,0.208c0.102,0.057,0.22,0.107,0.357,0.152c0.136,0.044,0.275,0.087,0.416,0.129
			c0.162,0.047,0.321,0.098,0.479,0.153c0.157,0.054,0.298,0.125,0.424,0.211c0.125,0.086,0.226,0.189,0.302,0.309
			c0.076,0.12,0.114,0.269,0.114,0.446v0.016c0,0.177-0.036,0.337-0.106,0.481c-0.071,0.144-0.169,0.266-0.294,0.368
			c-0.126,0.102-0.272,0.18-0.439,0.234C121.976,17.85,121.795,17.877,121.602,17.877z"/>
		<path fill="#1A171B" d="M126.561,13.798h0.384v1.137c0.079-0.177,0.178-0.342,0.298-0.494c0.12-0.152,0.256-0.281,0.408-0.388
			c0.152-0.107,0.318-0.188,0.499-0.243c0.181-0.055,0.369-0.08,0.568-0.075v0.424h-0.039c-0.23,0-0.45,0.043-0.659,0.13
			c-0.209,0.086-0.394,0.214-0.554,0.384c-0.159,0.17-0.286,0.38-0.38,0.628c-0.094,0.249-0.141,0.535-0.141,0.859v1.64h-0.384
			V13.798z"/>
		<path fill="#1A171B" d="M130.915,17.893c-0.188,0-0.374-0.026-0.557-0.078c-0.183-0.053-0.348-0.131-0.494-0.236
			c-0.147-0.104-0.266-0.235-0.357-0.393c-0.092-0.156-0.137-0.34-0.137-0.549v-0.016c0-0.208,0.042-0.395,0.129-0.557
			c0.086-0.163,0.205-0.298,0.357-0.408c0.15-0.11,0.334-0.193,0.548-0.251c0.214-0.057,0.453-0.086,0.714-0.086
			c0.282,0,0.525,0.016,0.729,0.046c0.204,0.032,0.403,0.073,0.596,0.126v-0.171c0-0.406-0.116-0.71-0.349-0.913
			s-0.556-0.304-0.969-0.304c-0.245,0-0.471,0.03-0.675,0.09c-0.204,0.061-0.397,0.137-0.581,0.232l-0.141-0.338
			c0.22-0.107,0.442-0.192,0.666-0.256c0.226-0.064,0.477-0.097,0.754-0.097c0.549,0,0.97,0.146,1.264,0.439
			c0.271,0.272,0.407,0.649,0.407,1.13v2.495h-0.377v-0.667c-0.067,0.094-0.15,0.188-0.247,0.278
			c-0.097,0.092-0.208,0.173-0.333,0.243c-0.126,0.071-0.268,0.129-0.428,0.173C131.277,17.871,131.103,17.893,130.915,17.893z
			 M130.938,17.524c0.204,0,0.398-0.03,0.58-0.09c0.184-0.06,0.345-0.144,0.483-0.25c0.139-0.107,0.249-0.236,0.33-0.387
			c0.081-0.151,0.122-0.318,0.122-0.5v-0.454c-0.167-0.041-0.363-0.082-0.588-0.12c-0.225-0.039-0.481-0.059-0.769-0.059
			c-0.424,0-0.75,0.084-0.978,0.254c-0.227,0.169-0.341,0.394-0.341,0.675v0.016c0,0.146,0.031,0.274,0.094,0.387
			c0.063,0.111,0.148,0.207,0.255,0.285c0.107,0.079,0.231,0.138,0.372,0.18C130.64,17.504,130.786,17.524,130.938,17.524z"/>
		<path fill="#1A171B" d="M134.202,13.798h0.385v0.894c0.083-0.13,0.18-0.255,0.29-0.376c0.11-0.121,0.231-0.225,0.365-0.313
			s0.282-0.161,0.447-0.216c0.165-0.055,0.346-0.083,0.545-0.083c0.24,0,0.478,0.047,0.71,0.142c0.233,0.094,0.441,0.23,0.624,0.408
			c0.183,0.178,0.331,0.396,0.443,0.655s0.168,0.551,0.168,0.875v0.016c0,0.324-0.056,0.616-0.168,0.875
			c-0.113,0.259-0.261,0.479-0.443,0.659s-0.391,0.319-0.624,0.416c-0.232,0.097-0.47,0.145-0.71,0.145
			c-0.199,0-0.382-0.026-0.549-0.078c-0.168-0.053-0.318-0.124-0.451-0.212c-0.133-0.089-0.254-0.191-0.361-0.307
			c-0.107-0.115-0.203-0.235-0.286-0.36v2.118h-0.385V13.798z M136.2,17.524c0.22,0,0.425-0.04,0.617-0.118
			c0.192-0.078,0.358-0.19,0.5-0.337s0.253-0.326,0.334-0.538c0.082-0.212,0.122-0.451,0.122-0.718v-0.015
			c0-0.262-0.042-0.5-0.126-0.714s-0.198-0.396-0.342-0.545c-0.144-0.149-0.312-0.265-0.503-0.346s-0.393-0.122-0.601-0.122
			c-0.21,0-0.413,0.042-0.609,0.125c-0.198,0.084-0.372,0.202-0.523,0.354c-0.153,0.151-0.274,0.332-0.367,0.542
			c-0.091,0.209-0.137,0.442-0.137,0.698v0.016c0,0.256,0.046,0.491,0.137,0.702c0.093,0.212,0.214,0.393,0.367,0.541
			c0.151,0.149,0.325,0.266,0.523,0.349C135.787,17.482,135.989,17.524,136.2,17.524z"/>
		<path fill="#1A171B" d="M139.388,12.229h0.479v0.525h-0.479V12.229z M139.436,13.798h0.385v4.001h-0.385V13.798z"/>
		<path fill="#1A171B" d="M143.021,17.893c-0.24,0-0.477-0.046-0.71-0.141c-0.232-0.094-0.44-0.23-0.624-0.408
			s-0.331-0.396-0.443-0.655c-0.112-0.259-0.169-0.551-0.169-0.875v-0.015c0-0.325,0.057-0.617,0.169-0.875
			c0.112-0.259,0.26-0.479,0.443-0.66c0.183-0.18,0.391-0.318,0.624-0.415c0.233-0.097,0.47-0.146,0.71-0.146
			c0.199,0,0.382,0.026,0.55,0.078c0.167,0.053,0.317,0.124,0.451,0.212c0.133,0.089,0.254,0.191,0.361,0.306
			c0.107,0.114,0.203,0.235,0.287,0.36v-2.589h0.384v5.728h-0.384v-0.895c-0.089,0.131-0.187,0.256-0.295,0.377
			c-0.106,0.12-0.228,0.224-0.361,0.313c-0.133,0.089-0.282,0.161-0.447,0.216C143.401,17.865,143.22,17.893,143.021,17.893z
			 M143.056,17.524c0.21,0,0.413-0.042,0.61-0.126c0.196-0.083,0.371-0.201,0.523-0.354c0.152-0.151,0.273-0.332,0.366-0.541
			c0.092-0.209,0.138-0.442,0.138-0.698V15.79c0-0.256-0.046-0.49-0.138-0.702c-0.093-0.212-0.214-0.393-0.366-0.542
			c-0.152-0.148-0.327-0.265-0.523-0.349c-0.197-0.083-0.4-0.125-0.61-0.125c-0.22,0-0.425,0.04-0.617,0.118
			c-0.191,0.078-0.357,0.191-0.499,0.338s-0.253,0.325-0.334,0.537s-0.122,0.451-0.122,0.718v0.016c0,0.262,0.042,0.5,0.126,0.714
			c0.083,0.215,0.198,0.396,0.341,0.545c0.145,0.149,0.313,0.265,0.504,0.345C142.646,17.483,142.847,17.524,143.056,17.524z"/>
		<path fill="#1A171B" d="M148.203,17.893c-0.262,0-0.513-0.049-0.75-0.148c-0.239-0.099-0.448-0.24-0.63-0.424
			c-0.18-0.183-0.324-0.403-0.428-0.659c-0.105-0.256-0.157-0.541-0.157-0.855V15.79c0-0.288,0.049-0.558,0.146-0.812
			s0.229-0.474,0.4-0.663c0.17-0.188,0.369-0.337,0.599-0.447c0.231-0.11,0.482-0.165,0.753-0.165c0.283,0,0.536,0.054,0.761,0.161
			s0.417,0.255,0.577,0.443c0.159,0.188,0.282,0.409,0.369,0.663c0.086,0.254,0.129,0.53,0.129,0.828c0,0.037,0,0.064,0,0.083
			c0,0.018-0.003,0.042-0.008,0.074h-3.319c0.017,0.25,0.072,0.472,0.167,0.665c0.094,0.192,0.211,0.356,0.354,0.492
			c0.141,0.135,0.302,0.238,0.483,0.308c0.182,0.07,0.371,0.105,0.57,0.105c0.314,0,0.581-0.06,0.798-0.181s0.411-0.27,0.579-0.447
			l0.267,0.235c-0.204,0.22-0.436,0.402-0.696,0.545C148.907,17.821,148.586,17.893,148.203,17.893z M149.563,15.609
			c-0.016-0.204-0.056-0.398-0.122-0.584c-0.065-0.186-0.158-0.351-0.275-0.494c-0.118-0.144-0.264-0.259-0.437-0.346
			c-0.173-0.086-0.375-0.129-0.606-0.129c-0.199,0-0.385,0.039-0.559,0.117c-0.173,0.079-0.324,0.188-0.452,0.326
			c-0.129,0.139-0.234,0.303-0.318,0.495c-0.084,0.19-0.134,0.396-0.15,0.615H149.563z"/>
	</g>
</g>
</svg>
