<?xml version="1.0" encoding="utf-8"?>
<!-- Generator: Adobe Illustrator 15.1.0, SVG Export Plug-In . SVG Version: 6.00 Build 0)  -->
<!DOCTYPE svg PUBLIC "-//W3C//DTD SVG 1.1//EN" "http://www.w3.org/Graphics/SVG/1.1/DTD/svg11.dtd">
<svg version="1.1" xmlns="http://www.w3.org/2000/svg" xmlns:xlink="http://www.w3.org/1999/xlink" x="0px" y="0px"
	 width="439.508px" height="94.087px" viewBox="0 0 439.508 94.087" enable-background="new 0 0 439.508 94.087"
	 xml:space="preserve">
<g id="Calque_1" display="none">
	
		<text transform="matrix(1 0 0 1 34.0635 106.0537)" display="inline" fill="#1A171B" font-family="'GothamBold'" font-size="19.0688">LA FRANCE QUI RAME</text>
	
		<text transform="matrix(1 0 0 1 35.231 118.5674)" display="inline" fill="#1A171B" font-family="'GothamLight'" font-size="11.5008">Militons pour rendre le web plus rapide</text>
</g>
<g id="Calque_2">
	<g>
		<path fill="#666666" d="M-1.528,18.639h5.891v21.46h13.349v5.316H-1.528V18.639z"/>
		<path fill="#666666" d="M31.326,18.45h5.432l11.474,26.966h-6.157l-2.448-6.007H28.305l-2.446,6.007h-6.007L31.326,18.45z
			 M37.522,34.209l-3.556-8.683l-3.558,8.683H37.522z"/>
		<path fill="#666666" d="M63.837,18.639h20.387v5.317H69.728v5.776h12.774v5.316H69.728v10.367h-5.891V18.639z"/>
		<path fill="#666666" d="M88.927,18.639h12.239c3.393,0,5.992,0.906,7.803,2.719c1.53,1.527,2.296,3.567,2.296,6.119v0.076
			c0,2.169-0.53,3.934-1.587,5.296c-1.06,1.365-2.443,2.366-4.15,3.003l6.539,9.563h-6.884l-5.736-8.568H99.37h-4.553v8.568h-5.891
			V18.639z M100.784,31.645c1.454,0,2.568-0.343,3.348-1.032c0.776-0.688,1.166-1.605,1.166-2.753v-0.076
			c0-1.276-0.408-2.231-1.225-2.868c-0.815-0.639-1.95-0.958-3.402-0.958h-5.854v7.688H100.784z"/>
		<path fill="#666666" d="M125.76,18.45h5.433l11.473,26.966h-6.157l-2.446-6.007h-11.322l-2.447,6.007h-6.007L125.76,18.45z
			 M131.956,34.209l-3.558-8.683l-3.556,8.683H131.956z"/>
		<path fill="#666666" d="M146.797,18.639h5.431l12.547,16.487V18.639h5.812v26.776h-5.01l-12.968-17.022v17.022h-5.812V18.639z"/>
		<path fill="#666666" d="M189.558,45.874c-1.964,0-3.787-0.357-5.47-1.072c-1.683-0.712-3.135-1.688-4.359-2.925
			c-1.226-1.237-2.182-2.696-2.869-4.378s-1.032-3.481-1.032-5.393v-0.076c0-1.915,0.345-3.704,1.032-5.375
			c0.688-1.669,1.644-3.137,2.869-4.397c1.225-1.265,2.69-2.26,4.397-2.986c1.708-0.727,3.596-1.088,5.662-1.088
			c1.247,0,2.39,0.101,3.422,0.306c1.034,0.206,1.972,0.485,2.812,0.841c0.841,0.357,1.619,0.79,2.334,1.301
			c0.712,0.51,1.377,1.069,1.988,1.683l-3.748,4.321c-1.045-0.942-2.11-1.683-3.193-2.218c-1.085-0.535-2.303-0.802-3.653-0.802
			c-1.121,0-2.161,0.215-3.117,0.65c-0.956,0.432-1.778,1.032-2.466,1.797c-0.689,0.765-1.224,1.649-1.608,2.656
			c-0.382,1.009-0.572,2.087-0.572,3.233v0.079c0,1.146,0.19,2.231,0.572,3.249c0.385,1.02,0.913,1.914,1.588,2.678
			c0.675,0.767,1.493,1.371,2.448,1.819c0.956,0.445,2.008,0.666,3.155,0.666c1.53,0,2.824-0.278,3.884-0.838
			c1.057-0.562,2.108-1.327,3.153-2.297l3.749,3.787c-0.689,0.741-1.402,1.401-2.142,1.99c-0.74,0.586-1.55,1.088-2.43,1.51
			c-0.879,0.421-1.842,0.74-2.887,0.957C192.03,45.766,190.858,45.874,189.558,45.874z"/>
		<path fill="#666666" d="M205.238,18.639h20.158v5.242h-14.344v5.431h12.622v5.24h-12.622v5.624h14.536v5.24h-20.351V18.639z"/>
		<path fill="#666666" d="M263.3,43.577c-1.147,0.741-2.384,1.309-3.71,1.703c-1.327,0.396-2.742,0.594-4.247,0.594
			c-2.064,0-3.964-0.362-5.698-1.09c-1.734-0.726-3.231-1.707-4.493-2.946c-1.262-1.236-2.244-2.689-2.944-4.36
			c-0.704-1.668-1.053-3.461-1.053-5.373v-0.076c0-1.915,0.356-3.704,1.069-5.375c0.715-1.669,1.703-3.137,2.965-4.397
			c1.264-1.265,2.767-2.26,4.514-2.986c1.747-0.726,3.654-1.088,5.719-1.088s3.965,0.362,5.697,1.088
			c1.736,0.727,3.233,1.71,4.495,2.946c1.264,1.237,2.244,2.692,2.945,4.361c0.702,1.671,1.052,3.46,1.052,5.373v0.079
			c0,1.401-0.205,2.752-0.611,4.052c-0.409,1.301-0.995,2.514-1.76,3.633l2.755,2.334l-3.75,4.169L263.3,43.577z M255.421,40.441
			c1.248,0,2.422-0.241,3.517-0.727l-4.358-3.709l3.748-4.207l4.399,3.978c0.483-1.072,0.727-2.295,0.727-3.671v-0.076
			c0-1.148-0.198-2.231-0.595-3.251c-0.395-1.021-0.954-1.916-1.681-2.679c-0.727-0.765-1.588-1.371-2.583-1.817
			c-0.993-0.444-2.077-0.667-3.252-0.667c-1.197,0-2.288,0.215-3.271,0.65c-0.98,0.432-1.821,1.032-2.523,1.797
			c-0.701,0.765-1.249,1.649-1.644,2.656c-0.396,1.009-0.594,2.087-0.594,3.233v0.079c0,1.146,0.197,2.231,0.594,3.249
			c0.395,1.02,0.956,1.914,1.682,2.678c0.727,0.767,1.581,1.371,2.563,1.819C253.131,40.22,254.222,40.441,255.421,40.441z"/>
		<path fill="#666666" d="M286.019,45.836c-3.595,0-6.425-0.995-8.492-2.985c-2.064-1.988-3.097-4.959-3.097-8.911V18.639h5.891
			v15.149c0,2.191,0.509,3.842,1.529,4.952c1.02,1.111,2.437,1.664,4.245,1.664c1.811,0,3.226-0.536,4.247-1.605
			c1.019-1.071,1.528-2.678,1.528-4.821V18.639h5.891v15.109c0,2.042-0.272,3.813-0.824,5.316c-0.545,1.506-1.332,2.762-2.349,3.769
			c-1.021,1.008-2.257,1.76-3.711,2.257C289.423,45.588,287.804,45.836,286.019,45.836z"/>
		<path fill="#666666" d="M304.035,18.639h5.889v26.776h-5.889V18.639z"/>
		<path fill="#666666" d="M328.091,18.639h12.24c3.392,0,5.992,0.906,7.802,2.719c1.533,1.527,2.297,3.567,2.297,6.119v0.076
			c0,2.169-0.528,3.934-1.588,5.296c-1.06,1.365-2.443,2.366-4.152,3.003l6.544,9.563h-6.885l-5.737-8.568h-0.077h-4.552v8.568
			h-5.892V18.639z M339.949,31.645c1.453,0,2.567-0.343,3.345-1.032c0.778-0.688,1.169-1.605,1.169-2.753v-0.076
			c0-1.276-0.41-2.231-1.223-2.868c-0.818-0.639-1.953-0.958-3.405-0.958h-5.853v7.688H339.949z"/>
		<path fill="#666666" d="M364.924,18.45h5.43l11.476,26.966h-6.162l-2.44-6.007h-11.323l-2.449,6.007h-6.004L364.924,18.45z
			 M371.12,34.209l-3.555-8.683l-3.561,8.683H371.12z"/>
		<path fill="#666666" d="M385.958,18.639h6.352l7.034,11.323l7.041-11.323h6.352v26.776h-5.817V27.934l-7.535,11.439h-0.154
			l-7.46-11.322v17.364h-5.812V18.639z"/>
		<path fill="#666666" d="M419.156,18.639h20.162v5.242h-14.345v5.431h12.622v5.24h-12.622v5.624h14.534v5.24h-20.352V18.639z"/>
	</g>
	<g>
		<path fill="#666666" d="M0,54.367h1.13l6.482,9.552l6.482-9.552h1.13v16.148h-1.199V56.489l-6.39,9.297H7.545l-6.392-9.297v14.026
			H0V54.367z"/>
		<path fill="#666666" d="M19.794,54.137h1.407v1.545h-1.407V54.137z M19.932,58.751h1.132v11.764h-1.132V58.751z"/>
		<path fill="#666666" d="M25.675,53.675h1.131v16.84h-1.131V53.675z"/>
		<path fill="#666666" d="M31.279,54.137h1.408v1.545h-1.408V54.137z M31.419,58.751h1.131v11.764h-1.131V58.751z"/>
		<path fill="#666666" d="M40.924,70.724c-0.462,0-0.893-0.062-1.292-0.186c-0.402-0.124-0.749-0.318-1.051-0.588
			c-0.299-0.269-0.534-0.609-0.703-1.015c-0.168-0.408-0.253-0.887-0.253-1.441v-7.705h-1.709v-1.037h1.709V54.99h1.13v3.761h4.129
			v1.037h-4.129v7.572c0,0.844,0.218,1.436,0.657,1.773c0.438,0.336,1.004,0.505,1.695,0.505c0.292,0,0.569-0.029,0.831-0.086
			c0.261-0.059,0.562-0.161,0.899-0.306v1.061c-0.309,0.139-0.611,0.244-0.912,0.312C41.626,70.688,41.292,70.724,40.924,70.724z"/>
		<path fill="#666666" d="M51.441,70.791c-0.876,0-1.68-0.164-2.41-0.496c-0.73-0.33-1.364-0.772-1.902-1.325
			c-0.54-0.554-0.958-1.2-1.258-1.938c-0.302-0.738-0.45-1.524-0.45-2.354v-0.044c0-0.831,0.148-1.615,0.45-2.353
			c0.3-0.738,0.723-1.393,1.268-1.962c0.547-0.567,1.189-1.018,1.929-1.348c0.737-0.33,1.545-0.497,2.42-0.497
			c0.877,0,1.68,0.167,2.412,0.497c0.729,0.33,1.364,0.772,1.902,1.327c0.538,0.551,0.958,1.199,1.258,1.937
			c0.3,0.739,0.449,1.523,0.449,2.353v0.047c0,0.83-0.149,1.614-0.449,2.353c-0.3,0.738-0.724,1.391-1.268,1.96
			c-0.549,0.57-1.189,1.019-1.927,1.349C53.126,70.627,52.318,70.791,51.441,70.791z M51.487,69.708
			c0.696,0,1.341-0.134,1.936-0.402c0.595-0.269,1.105-0.629,1.53-1.08c0.425-0.453,0.757-0.982,0.996-1.597
			c0.24-0.613,0.359-1.263,0.359-1.953v-0.044c0-0.705-0.124-1.368-0.37-1.987c-0.247-0.62-0.592-1.16-1.032-1.62
			c-0.439-0.458-0.958-0.82-1.553-1.078c-0.594-0.261-1.231-0.392-1.912-0.392c-0.694,0-1.341,0.135-1.935,0.402
			c-0.595,0.269-1.105,0.629-1.531,1.08c-0.425,0.452-0.756,0.983-0.996,1.596c-0.239,0.613-0.358,1.264-0.358,1.953v0.046
			c0,0.702,0.123,1.365,0.37,1.985c0.247,0.621,0.592,1.16,1.032,1.62c0.439,0.459,0.957,0.818,1.552,1.08
			C50.171,69.578,50.809,69.708,51.487,69.708z"/>
		<path fill="#666666" d="M60.991,58.751h1.132v2.191c0.399-0.692,0.938-1.278,1.613-1.754c0.678-0.477,1.554-0.715,2.632-0.715
			c0.736,0,1.396,0.119,1.982,0.357c0.585,0.24,1.08,0.574,1.487,1.005c0.408,0.429,0.717,0.94,0.925,1.532
			c0.207,0.594,0.311,1.243,0.311,1.951v7.197h-1.13v-6.989c0-1.217-0.323-2.188-0.97-2.92c-0.646-0.729-1.569-1.094-2.768-1.094
			c-0.586,0-1.124,0.104-1.615,0.31c-0.492,0.21-0.923,0.496-1.292,0.866c-0.369,0.368-0.657,0.812-0.864,1.327
			c-0.208,0.514-0.312,1.081-0.312,1.696v6.805h-1.132V58.751z"/>
		<path fill="#666666" d="M78.938,70.747c-0.861,0-1.723-0.161-2.582-0.484c-0.863-0.322-1.608-0.737-2.24-1.246l0.669-0.902
			c0.647,0.494,1.322,0.875,2.032,1.143c0.707,0.27,1.437,0.403,2.191,0.403c0.799,0,1.472-0.2,2.016-0.597
			c0.549-0.399,0.821-0.945,0.821-1.635v-0.046c0-0.336-0.084-0.629-0.254-0.876c-0.169-0.244-0.4-0.459-0.691-0.645
			c-0.293-0.184-0.623-0.337-0.992-0.459s-0.761-0.246-1.178-0.369c-0.477-0.138-0.956-0.284-1.441-0.436
			c-0.485-0.155-0.919-0.349-1.304-0.589c-0.385-0.235-0.696-0.531-0.933-0.884c-0.24-0.354-0.359-0.791-0.359-1.312v-0.046
			c0-0.477,0.097-0.91,0.289-1.3c0.192-0.391,0.458-0.734,0.797-1.025c0.337-0.292,0.745-0.517,1.222-0.679
			c0.477-0.163,1-0.243,1.569-0.243c0.706,0,1.434,0.118,2.179,0.354c0.747,0.235,1.411,0.556,1.996,0.962l-0.601,0.945
			c-0.537-0.354-1.12-0.639-1.74-0.854c-0.623-0.215-1.25-0.322-1.88-0.322c-0.816,0-1.465,0.195-1.95,0.589
			c-0.485,0.389-0.727,0.877-0.727,1.458v0.047c0,0.323,0.092,0.603,0.276,0.84c0.187,0.237,0.428,0.441,0.728,0.612
			c0.299,0.168,0.648,0.316,1.05,0.448c0.398,0.129,0.807,0.257,1.222,0.38c0.478,0.138,0.945,0.289,1.408,0.45
			c0.461,0.159,0.876,0.367,1.244,0.62c0.369,0.252,0.666,0.556,0.889,0.909c0.223,0.352,0.333,0.791,0.333,1.312v0.047
			c0,0.521-0.103,0.992-0.31,1.416c-0.208,0.422-0.495,0.781-0.864,1.083c-0.37,0.299-0.801,0.528-1.292,0.689
			C80.038,70.666,79.509,70.747,78.938,70.747z"/>
		<path fill="#666666" d="M93.517,58.751h1.133v2.627c0.244-0.383,0.528-0.751,0.853-1.107c0.321-0.355,0.681-0.661,1.071-0.922
			c0.394-0.261,0.831-0.474,1.316-0.635c0.483-0.162,1.018-0.242,1.604-0.242c0.706,0,1.402,0.139,2.088,0.416
			c0.683,0.277,1.295,0.676,1.833,1.199c0.538,0.524,0.972,1.166,1.304,1.927c0.33,0.761,0.495,1.62,0.495,2.571v0.047
			c0,0.953-0.165,1.811-0.495,2.571c-0.332,0.762-0.766,1.407-1.304,1.938c-0.538,0.531-1.15,0.938-1.833,1.222
			c-0.686,0.286-1.382,0.426-2.088,0.426c-0.586,0-1.123-0.076-1.615-0.229c-0.494-0.155-0.935-0.363-1.326-0.623
			c-0.394-0.263-0.747-0.562-1.062-0.901c-0.314-0.337-0.596-0.69-0.84-1.06v6.227h-1.133V58.751z M99.389,69.708
			c0.647,0,1.253-0.116,1.815-0.348c0.563-0.229,1.053-0.56,1.468-0.99c0.418-0.431,0.745-0.959,0.981-1.581
			c0.24-0.623,0.359-1.326,0.359-2.112v-0.044c0-0.771-0.122-1.47-0.369-2.1c-0.247-0.63-0.583-1.166-1.006-1.603
			c-0.424-0.439-0.916-0.778-1.48-1.016c-0.562-0.239-1.151-0.358-1.769-0.358s-1.215,0.125-1.792,0.369
			c-0.578,0.247-1.093,0.594-1.537,1.04c-0.448,0.445-0.808,0.976-1.076,1.592c-0.27,0.614-0.404,1.299-0.404,2.051v0.047
			c0,0.752,0.135,1.443,0.404,2.064c0.269,0.623,0.628,1.154,1.076,1.591c0.444,0.439,0.959,0.781,1.537,1.026
			C98.174,69.585,98.771,69.708,99.389,69.708z"/>
		<path fill="#666666" d="M113.956,70.791c-0.876,0-1.68-0.164-2.412-0.496c-0.729-0.33-1.363-0.772-1.902-1.325
			c-0.538-0.554-0.957-1.2-1.258-1.938c-0.298-0.738-0.449-1.524-0.449-2.354v-0.044c0-0.831,0.151-1.615,0.449-2.353
			c0.301-0.738,0.723-1.393,1.271-1.962c0.544-0.567,1.187-1.018,1.925-1.348s1.546-0.497,2.422-0.497s1.68,0.167,2.41,0.497
			c0.731,0.33,1.365,0.772,1.902,1.327c0.54,0.551,0.959,1.199,1.258,1.937c0.3,0.739,0.451,1.523,0.451,2.353v0.047
			c0,0.83-0.151,1.614-0.451,2.353c-0.299,0.738-0.722,1.391-1.268,1.96c-0.546,0.57-1.188,1.019-1.927,1.349
			C115.64,70.627,114.833,70.791,113.956,70.791z M114.002,69.708c0.695,0,1.341-0.134,1.936-0.402
			c0.594-0.269,1.105-0.629,1.53-1.08c0.425-0.453,0.758-0.982,0.996-1.597c0.238-0.613,0.359-1.263,0.359-1.953v-0.044
			c0-0.705-0.124-1.368-0.371-1.987c-0.248-0.62-0.591-1.16-1.032-1.62c-0.44-0.458-0.957-0.82-1.552-1.078
			c-0.596-0.261-1.231-0.392-1.912-0.392c-0.696,0-1.341,0.135-1.937,0.402c-0.595,0.269-1.104,0.629-1.529,1.08
			c-0.425,0.452-0.758,0.983-0.996,1.596c-0.24,0.613-0.359,1.264-0.359,1.953v0.046c0,0.702,0.124,1.365,0.371,1.985
			c0.247,0.621,0.591,1.16,1.03,1.62c0.441,0.459,0.959,0.818,1.554,1.08C112.686,69.578,113.323,69.708,114.002,69.708z"/>
		<path fill="#666666" d="M127.982,70.791c-0.738,0-1.399-0.119-1.984-0.356c-0.585-0.24-1.079-0.574-1.488-1.005
			c-0.406-0.428-0.715-0.94-0.922-1.533c-0.208-0.591-0.312-1.243-0.312-1.95v-7.195h1.13v6.989c0,1.214,0.323,2.188,0.969,2.917
			c0.646,0.732,1.569,1.095,2.769,1.095c0.568,0,1.103-0.104,1.604-0.312c0.499-0.207,0.935-0.495,1.305-0.863
			c0.368-0.371,0.656-0.811,0.864-1.327c0.207-0.515,0.311-1.081,0.311-1.695v-6.805h1.131v11.764h-1.131v-2.192
			c-0.399,0.693-0.938,1.276-1.614,1.753C129.935,70.554,129.058,70.791,127.982,70.791z"/>
		<path fill="#666666" d="M137.647,58.751h1.131v3.342c0.23-0.521,0.521-1.006,0.876-1.452c0.354-0.446,0.754-0.827,1.2-1.141
			c0.445-0.316,0.934-0.554,1.465-0.715c0.529-0.163,1.088-0.236,1.672-0.221v1.246h-0.114c-0.678,0-1.324,0.126-1.938,0.382
			c-0.616,0.254-1.158,0.63-1.627,1.128c-0.469,0.5-0.843,1.117-1.118,1.846c-0.276,0.731-0.415,1.574-0.415,2.527v4.821h-1.131
			V58.751z"/>
		<path fill="#666666" d="M153.794,58.751h1.132v3.342c0.229-0.521,0.522-1.006,0.877-1.452c0.354-0.446,0.752-0.827,1.197-1.141
			c0.448-0.316,0.937-0.554,1.466-0.715c0.531-0.163,1.088-0.236,1.673-0.221v1.246h-0.115c-0.676,0-1.323,0.126-1.938,0.382
			c-0.614,0.254-1.156,0.63-1.626,1.128c-0.47,0.5-0.842,1.117-1.118,1.846c-0.277,0.731-0.415,1.574-0.415,2.527v4.821h-1.132
			V58.751z"/>
		<path fill="#666666" d="M167.994,70.791c-0.771,0-1.506-0.144-2.208-0.437c-0.7-0.292-1.317-0.707-1.849-1.246
			c-0.531-0.539-0.952-1.185-1.261-1.938c-0.309-0.752-0.462-1.591-0.462-2.514v-0.047c0-0.846,0.142-1.641,0.426-2.387
			c0.284-0.747,0.678-1.394,1.178-1.95c0.499-0.553,1.087-0.992,1.764-1.314c0.677-0.323,1.415-0.485,2.216-0.485
			c0.83,0,1.576,0.158,2.236,0.474c0.662,0.316,1.228,0.75,1.695,1.304c0.47,0.553,0.832,1.203,1.084,1.948
			c0.255,0.747,0.381,1.558,0.381,2.435c0,0.108,0,0.188,0,0.243c0,0.053-0.007,0.125-0.023,0.217h-9.756
			c0.046,0.735,0.208,1.387,0.484,1.954c0.277,0.565,0.625,1.046,1.041,1.445c0.417,0.398,0.891,0.699,1.423,0.906
			c0.531,0.207,1.091,0.31,1.677,0.31c0.925,0,1.707-0.177,2.346-0.531c0.643-0.354,1.208-0.792,1.702-1.313l0.785,0.69
			c-0.602,0.646-1.284,1.182-2.046,1.602C170.064,70.58,169.12,70.791,167.994,70.791z M171.995,64.078
			c-0.047-0.599-0.166-1.171-0.358-1.717c-0.192-0.547-0.462-1.031-0.81-1.453c-0.346-0.423-0.775-0.762-1.285-1.016
			c-0.508-0.253-1.103-0.379-1.778-0.379c-0.588,0-1.135,0.115-1.645,0.345c-0.508,0.231-0.951,0.551-1.329,0.958
			c-0.378,0.409-0.69,0.892-0.937,1.455c-0.246,0.56-0.393,1.166-0.438,1.809H171.995z"/>
		<path fill="#666666" d="M176.493,58.751h1.132v2.191c0.399-0.692,0.938-1.278,1.613-1.754c0.678-0.477,1.554-0.715,2.63-0.715
			c0.738,0,1.4,0.119,1.984,0.357c0.584,0.24,1.081,0.574,1.487,1.005c0.408,0.429,0.717,0.94,0.925,1.532
			c0.207,0.594,0.311,1.243,0.311,1.951v7.197h-1.132v-6.989c0-1.217-0.321-2.188-0.968-2.92c-0.646-0.729-1.567-1.094-2.768-1.094
			c-0.585,0-1.123,0.104-1.615,0.31c-0.492,0.21-0.922,0.496-1.291,0.866c-0.37,0.368-0.657,0.812-0.864,1.327
			c-0.208,0.514-0.312,1.081-0.312,1.696v6.805h-1.132V58.751z"/>
		<path fill="#666666" d="M195.595,70.791c-0.707,0-1.404-0.137-2.089-0.415c-0.684-0.277-1.295-0.676-1.833-1.199
			s-0.974-1.166-1.303-1.925c-0.331-0.762-0.496-1.619-0.496-2.574v-0.044c0-0.955,0.165-1.813,0.496-2.573
			c0.329-0.761,0.765-1.408,1.303-1.939c0.538-0.53,1.149-0.936,1.833-1.22c0.685-0.286,1.382-0.428,2.089-0.428
			c0.585,0,1.123,0.077,1.614,0.229c0.492,0.155,0.935,0.363,1.328,0.625c0.392,0.261,0.745,0.562,1.059,0.9
			c0.316,0.336,0.597,0.692,0.843,1.059v-7.612h1.13v16.84h-1.13v-2.63c-0.261,0.385-0.55,0.753-0.864,1.108
			c-0.315,0.353-0.669,0.659-1.062,0.921c-0.393,0.261-0.83,0.474-1.314,0.636C196.713,70.71,196.18,70.791,195.595,70.791z
			 M195.698,69.708c0.616,0,1.215-0.124,1.793-0.371c0.577-0.246,1.09-0.591,1.536-1.039c0.448-0.444,0.808-0.975,1.075-1.589
			c0.269-0.616,0.405-1.301,0.405-2.053v-0.047c0-0.752-0.137-1.441-0.405-2.064c-0.268-0.623-0.627-1.154-1.075-1.592
			c-0.446-0.436-0.959-0.779-1.536-1.026c-0.578-0.244-1.177-0.369-1.793-0.369c-0.647,0-1.253,0.117-1.814,0.346
			c-0.564,0.229-1.053,0.563-1.471,0.994c-0.414,0.431-0.742,0.956-0.981,1.579c-0.238,0.623-0.357,1.327-0.357,2.11v0.047
			c0,0.77,0.123,1.469,0.37,2.099c0.244,0.631,0.58,1.164,1.005,1.602c0.425,0.439,0.916,0.778,1.479,1.015
			C194.491,69.588,195.081,69.708,195.698,69.708z"/>
		<path fill="#666666" d="M205.858,58.751h1.133v3.342c0.229-0.521,0.521-1.006,0.876-1.452c0.353-0.446,0.754-0.827,1.198-1.141
			c0.447-0.316,0.935-0.554,1.466-0.715c0.53-0.163,1.087-0.236,1.673-0.221v1.246h-0.116c-0.677,0-1.322,0.126-1.938,0.382
			c-0.614,0.254-1.155,0.63-1.625,1.128c-0.47,0.5-0.843,1.117-1.118,1.846c-0.277,0.731-0.415,1.574-0.415,2.527v4.821h-1.133
			V58.751z"/>
		<path fill="#666666" d="M220.06,70.791c-0.771,0-1.506-0.144-2.206-0.437c-0.702-0.292-1.318-0.707-1.851-1.246
			c-0.531-0.539-0.952-1.185-1.261-1.938c-0.309-0.752-0.462-1.591-0.462-2.514v-0.047c0-0.846,0.142-1.641,0.426-2.387
			c0.285-0.747,0.678-1.394,1.178-1.95c0.5-0.553,1.087-0.992,1.765-1.314c0.676-0.323,1.414-0.485,2.214-0.485
			c0.831,0,1.577,0.158,2.239,0.474c0.66,0.316,1.226,0.75,1.694,1.304c0.469,0.553,0.831,1.203,1.084,1.948
			c0.254,0.747,0.382,1.558,0.382,2.435c0,0.108,0,0.188,0,0.243c0,0.053-0.008,0.125-0.024,0.217h-9.757
			c0.046,0.735,0.208,1.387,0.485,1.954c0.278,0.565,0.623,1.046,1.041,1.445c0.417,0.398,0.891,0.699,1.422,0.906
			c0.531,0.207,1.092,0.31,1.678,0.31c0.924,0,1.707-0.177,2.347-0.531c0.641-0.354,1.208-0.792,1.7-1.313l0.785,0.69
			c-0.602,0.646-1.283,1.182-2.045,1.602C222.13,70.58,221.186,70.791,220.06,70.791z M224.062,64.078
			c-0.048-0.599-0.167-1.171-0.357-1.717c-0.194-0.547-0.464-1.031-0.811-1.453c-0.347-0.423-0.774-0.762-1.284-1.016
			c-0.509-0.253-1.103-0.379-1.78-0.379c-0.587,0-1.135,0.115-1.644,0.345c-0.509,0.231-0.951,0.551-1.33,0.958
			c-0.377,0.409-0.688,0.892-0.936,1.455c-0.247,0.56-0.394,1.166-0.439,1.809H224.062z"/>
		<path fill="#666666" d="M235.642,53.675h1.13v16.84h-1.13V53.675z"/>
		<path fill="#666666" d="M246.196,70.791c-0.771,0-1.506-0.144-2.208-0.437c-0.702-0.292-1.318-0.707-1.851-1.246
			c-0.531-0.539-0.952-1.185-1.261-1.938c-0.307-0.752-0.462-1.591-0.462-2.514v-0.047c0-0.846,0.142-1.641,0.428-2.387
			c0.283-0.747,0.676-1.394,1.176-1.95c0.5-0.553,1.088-0.992,1.765-1.314c0.678-0.323,1.415-0.485,2.215-0.485
			c0.83,0,1.576,0.158,2.238,0.474c0.66,0.316,1.226,0.75,1.695,1.304c0.468,0.553,0.83,1.203,1.084,1.948
			c0.253,0.747,0.381,1.558,0.381,2.435c0,0.108,0,0.188,0,0.243c0,0.053-0.008,0.125-0.023,0.217h-9.758
			c0.046,0.735,0.208,1.387,0.486,1.954c0.277,0.565,0.623,1.046,1.04,1.445c0.417,0.398,0.892,0.699,1.422,0.906
			c0.531,0.207,1.092,0.31,1.678,0.31c0.926,0,1.708-0.177,2.349-0.531c0.64-0.354,1.206-0.792,1.699-1.313l0.784,0.69
			c-0.6,0.646-1.282,1.182-2.044,1.602C248.265,70.58,247.322,70.791,246.196,70.791z M250.196,64.078
			c-0.046-0.599-0.165-1.171-0.357-1.717c-0.194-0.547-0.464-1.031-0.81-1.453c-0.348-0.423-0.775-0.762-1.284-1.016
			c-0.508-0.253-1.104-0.379-1.781-0.379c-0.587,0-1.133,0.115-1.643,0.345c-0.51,0.231-0.952,0.551-1.331,0.958
			c-0.377,0.409-0.688,0.892-0.936,1.455c-0.246,0.56-0.394,1.166-0.439,1.809H250.196z"/>
		<path fill="#666666" d="M260.601,58.751h1.269l3.552,10.334l3.552-10.383h0.902l3.552,10.383l3.552-10.334h1.223l-4.313,11.855
			h-0.97l-3.506-10.08l-3.53,10.08h-0.968L260.601,58.751z"/>
		<path fill="#666666" d="M286.451,70.791c-0.771,0-1.508-0.144-2.208-0.437c-0.704-0.292-1.318-0.707-1.851-1.246
			c-0.533-0.539-0.952-1.185-1.26-1.938c-0.31-0.752-0.464-1.591-0.464-2.514v-0.047c0-0.846,0.143-1.641,0.429-2.387
			c0.284-0.747,0.676-1.394,1.176-1.95c0.499-0.553,1.088-0.992,1.764-1.314c0.678-0.323,1.414-0.485,2.216-0.485
			c0.83,0,1.576,0.158,2.236,0.474c0.662,0.316,1.227,0.75,1.697,1.304c0.468,0.553,0.83,1.203,1.084,1.948
			c0.253,0.747,0.38,1.558,0.38,2.435c0,0.108,0,0.188,0,0.243c0,0.053-0.008,0.125-0.022,0.217h-9.76
			c0.047,0.735,0.21,1.387,0.488,1.954c0.275,0.565,0.623,1.046,1.041,1.445c0.415,0.398,0.889,0.699,1.421,0.906
			c0.531,0.207,1.091,0.31,1.676,0.31c0.927,0,1.71-0.177,2.349-0.531c0.641-0.354,1.206-0.792,1.699-1.313l0.784,0.69
			c-0.599,0.646-1.28,1.182-2.044,1.602C288.52,70.58,287.576,70.791,286.451,70.791z M290.45,64.078
			c-0.046-0.599-0.166-1.171-0.358-1.717c-0.192-0.547-0.462-1.031-0.81-1.453c-0.347-0.423-0.774-0.762-1.284-1.016
			c-0.508-0.253-1.103-0.379-1.78-0.379c-0.587,0-1.132,0.115-1.642,0.345c-0.51,0.231-0.952,0.551-1.331,0.958
			c-0.378,0.409-0.69,0.892-0.937,1.455c-0.245,0.56-0.394,1.166-0.44,1.809H290.45z"/>
		<path fill="#666666" d="M300.922,70.791c-0.582,0-1.119-0.076-1.613-0.229c-0.494-0.155-0.937-0.363-1.326-0.623
			c-0.394-0.263-0.747-0.562-1.062-0.901c-0.316-0.337-0.595-0.69-0.839-1.06v2.537h-1.133v-16.84h1.133v7.704
			c0.244-0.383,0.528-0.751,0.85-1.107c0.325-0.355,0.684-0.661,1.074-0.922c0.394-0.261,0.83-0.474,1.315-0.635
			c0.485-0.162,1.02-0.242,1.602-0.242c0.707,0,1.404,0.139,2.091,0.416c0.684,0.277,1.292,0.676,1.832,1.199
			c0.54,0.524,0.973,1.166,1.304,1.927c0.33,0.761,0.496,1.62,0.496,2.571v0.047c0,0.953-0.166,1.811-0.496,2.571
			c-0.331,0.762-0.764,1.407-1.304,1.938c-0.54,0.531-1.148,0.938-1.832,1.222C302.326,70.65,301.629,70.791,300.922,70.791z
			 M300.819,69.708c0.648,0,1.254-0.116,1.817-0.348c0.56-0.229,1.051-0.56,1.467-0.99c0.417-0.431,0.744-0.959,0.982-1.581
			c0.238-0.623,0.358-1.326,0.358-2.112v-0.044c0-0.771-0.123-1.47-0.37-2.1c-0.247-0.63-0.58-1.166-1.005-1.603
			c-0.425-0.439-0.919-0.778-1.481-1.016c-0.563-0.239-1.151-0.358-1.769-0.358c-0.615,0-1.215,0.125-1.792,0.369
			c-0.577,0.247-1.091,0.594-1.536,1.04c-0.448,0.445-0.807,0.976-1.077,1.592c-0.27,0.614-0.404,1.299-0.404,2.051v0.047
			c0,0.752,0.135,1.443,0.404,2.064c0.271,0.623,0.629,1.154,1.077,1.591c0.445,0.439,0.959,0.781,1.536,1.026
			C299.604,69.585,300.204,69.708,300.819,69.708z"/>
		<path fill="#666666" d="M317.094,58.751h1.131v2.627c0.247-0.383,0.528-0.751,0.853-1.107c0.325-0.355,0.681-0.661,1.071-0.922
			c0.396-0.261,0.833-0.474,1.315-0.635c0.488-0.162,1.02-0.242,1.605-0.242c0.706,0,1.403,0.139,2.087,0.416
			c0.684,0.277,1.295,0.676,1.832,1.199c0.54,0.524,0.977,1.166,1.307,1.927s0.493,1.62,0.493,2.571v0.047
			c0,0.953-0.163,1.811-0.493,2.571c-0.33,0.762-0.767,1.407-1.307,1.938c-0.537,0.531-1.148,0.938-1.832,1.222
			c-0.684,0.286-1.381,0.426-2.087,0.426c-0.586,0-1.123-0.076-1.617-0.229c-0.491-0.155-0.934-0.363-1.323-0.623
			c-0.394-0.263-0.747-0.562-1.062-0.901c-0.316-0.337-0.595-0.69-0.842-1.06v6.227h-1.131V58.751z M322.966,69.708
			c0.646,0,1.252-0.116,1.814-0.348c0.562-0.229,1.054-0.56,1.467-0.99c0.42-0.431,0.747-0.959,0.982-1.581
			c0.241-0.623,0.361-1.326,0.361-2.112v-0.044c0-0.771-0.126-1.47-0.373-2.1c-0.244-0.63-0.58-1.166-1.005-1.603
			c-0.422-0.439-0.916-0.778-1.479-1.016c-0.563-0.239-1.151-0.358-1.769-0.358s-1.215,0.125-1.795,0.369
			c-0.574,0.247-1.091,0.594-1.536,1.04c-0.445,0.445-0.807,0.976-1.074,1.592c-0.272,0.614-0.404,1.299-0.404,2.051v0.047
			c0,0.752,0.132,1.443,0.404,2.064c0.268,0.623,0.629,1.154,1.074,1.591c0.445,0.439,0.962,0.781,1.536,1.026
			C321.751,69.585,322.349,69.708,322.966,69.708z"/>
		<path fill="#666666" d="M332.481,53.675h1.131v16.84h-1.131V53.675z"/>
		<path fill="#666666" d="M342.539,70.791c-0.74,0-1.401-0.119-1.986-0.356c-0.583-0.24-1.08-0.574-1.487-1.005
			c-0.408-0.428-0.713-0.94-0.922-1.533c-0.207-0.591-0.311-1.243-0.311-1.95v-7.195h1.129v6.989c0,1.214,0.324,2.188,0.971,2.917
			c0.646,0.732,1.567,1.095,2.768,1.095c0.568,0,1.103-0.104,1.602-0.312c0.5-0.207,0.937-0.495,1.304-0.863
			c0.368-0.371,0.658-0.811,0.867-1.327c0.207-0.515,0.311-1.081,0.311-1.695v-6.805h1.131v11.764h-1.131v-2.192
			c-0.402,0.693-0.939,1.276-1.614,1.753C344.492,70.554,343.613,70.791,342.539,70.791z"/>
		<path fill="#666666" d="M356.009,70.747c-0.858,0-1.72-0.161-2.584-0.484c-0.861-0.322-1.605-0.737-2.237-1.246l0.672-0.902
			c0.644,0.494,1.321,0.875,2.027,1.143c0.706,0.27,1.438,0.403,2.193,0.403c0.799,0,1.471-0.2,2.016-0.597
			c0.546-0.399,0.821-0.945,0.821-1.635v-0.046c0-0.336-0.086-0.629-0.252-0.876c-0.173-0.244-0.402-0.459-0.695-0.645
			c-0.293-0.184-0.623-0.337-0.99-0.459c-0.371-0.122-0.764-0.246-1.178-0.369c-0.477-0.138-0.956-0.284-1.441-0.436
			c-0.485-0.155-0.919-0.349-1.304-0.589c-0.382-0.235-0.697-0.531-0.933-0.884c-0.241-0.354-0.359-0.791-0.359-1.312v-0.046
			c0-0.477,0.098-0.91,0.29-1.3c0.189-0.391,0.457-0.734,0.793-1.025c0.339-0.292,0.746-0.517,1.223-0.679
			c0.477-0.163,0.999-0.243,1.571-0.243c0.706,0,1.433,0.118,2.179,0.354c0.747,0.235,1.41,0.556,1.996,0.962l-0.601,0.945
			c-0.54-0.354-1.12-0.639-1.743-0.854s-1.249-0.322-1.88-0.322c-0.816,0-1.462,0.195-1.947,0.589
			c-0.482,0.389-0.724,0.877-0.724,1.458v0.047c0,0.323,0.086,0.603,0.272,0.84c0.188,0.237,0.428,0.441,0.727,0.612
			c0.302,0.168,0.649,0.316,1.051,0.448c0.399,0.129,0.811,0.257,1.224,0.38c0.477,0.138,0.941,0.289,1.407,0.45
			c0.462,0.159,0.878,0.367,1.246,0.62c0.367,0.252,0.663,0.556,0.887,0.909c0.222,0.352,0.336,0.791,0.336,1.312v0.047
			c0,0.521-0.105,0.992-0.312,1.416c-0.21,0.422-0.497,0.781-0.864,1.083c-0.37,0.299-0.802,0.528-1.292,0.689
			C357.108,70.666,356.58,70.747,356.009,70.747z"/>
		<path fill="#666666" d="M370.589,58.751h1.127v3.342c0.236-0.521,0.523-1.006,0.879-1.452c0.356-0.446,0.752-0.827,1.2-1.141
			c0.448-0.316,0.937-0.554,1.465-0.715c0.534-0.163,1.085-0.236,1.671-0.221v1.246h-0.115c-0.678,0-1.32,0.126-1.935,0.382
			c-0.615,0.254-1.16,0.63-1.632,1.128c-0.465,0.5-0.838,1.117-1.113,1.846c-0.276,0.731-0.42,1.574-0.42,2.527v4.821h-1.127V58.751
			z"/>
		<path fill="#666666" d="M383.391,70.791c-0.551,0-1.097-0.076-1.637-0.229c-0.539-0.155-1.021-0.386-1.452-0.693
			s-0.781-0.692-1.051-1.154c-0.271-0.459-0.402-0.999-0.402-1.614v-0.047c0-0.613,0.126-1.16,0.379-1.637
			c0.253-0.478,0.604-0.877,1.051-1.2c0.442-0.323,0.982-0.567,1.614-0.738c0.631-0.168,1.332-0.252,2.102-0.252
			c0.827,0,1.545,0.046,2.142,0.136c0.604,0.093,1.189,0.215,1.752,0.371v-0.504c0-1.193-0.339-2.089-1.022-2.685
			c-0.684-0.596-1.637-0.894-2.849-0.894c-0.724,0-1.384,0.089-1.986,0.264c-0.598,0.178-1.166,0.403-1.706,0.682l-0.413-0.993
			c0.643-0.314,1.298-0.566,1.958-0.754c0.66-0.189,1.401-0.284,2.217-0.284c1.613,0,2.849,0.431,3.716,1.292
			c0.798,0.8,1.194,1.909,1.194,3.322v7.336h-1.108v-1.961c-0.195,0.275-0.442,0.551-0.724,0.818
			c-0.287,0.27-0.614,0.508-0.982,0.715c-0.367,0.208-0.786,0.379-1.257,0.508C384.459,70.726,383.942,70.791,383.391,70.791z
			 M383.46,69.708c0.603,0,1.172-0.087,1.705-0.264c0.54-0.177,1.017-0.422,1.419-0.735c0.413-0.315,0.735-0.693,0.971-1.137
			c0.241-0.445,0.355-0.936,0.355-1.47v-1.335c-0.487-0.121-1.067-0.24-1.729-0.354c-0.66-0.115-1.412-0.172-2.257-0.172
			c-1.246,0-2.205,0.249-2.877,0.747c-0.666,0.497-0.999,1.159-0.999,1.986v0.047c0,0.429,0.092,0.807,0.275,1.137
			c0.184,0.328,0.437,0.607,0.747,0.837c0.315,0.231,0.683,0.406,1.097,0.528C382.581,69.648,383.012,69.708,383.46,69.708z"/>
		<path fill="#666666" d="M393.056,58.751h1.132v2.627c0.247-0.383,0.528-0.751,0.855-1.107c0.321-0.355,0.678-0.661,1.073-0.922
			c0.391-0.261,0.827-0.474,1.315-0.635c0.482-0.162,1.017-0.242,1.603-0.242c0.706,0,1.401,0.139,2.084,0.416
			c0.689,0.277,1.298,0.676,1.838,1.199c0.534,0.524,0.971,1.166,1.304,1.927c0.327,0.761,0.494,1.62,0.494,2.571v0.047
			c0,0.953-0.167,1.811-0.494,2.571c-0.333,0.762-0.77,1.407-1.304,1.938c-0.54,0.531-1.148,0.938-1.838,1.222
			c-0.683,0.286-1.378,0.426-2.084,0.426c-0.586,0-1.126-0.076-1.614-0.229c-0.493-0.155-0.936-0.363-1.326-0.623
			c-0.396-0.263-0.746-0.562-1.062-0.901c-0.315-0.337-0.597-0.69-0.844-1.06v6.227h-1.132V58.751z M398.931,69.708
			c0.644,0,1.252-0.116,1.814-0.348c0.562-0.229,1.051-0.56,1.465-0.99c0.419-0.431,0.746-0.959,0.987-1.581
			c0.235-0.623,0.356-1.326,0.356-2.112v-0.044c0-0.771-0.121-1.47-0.368-2.1c-0.247-0.63-0.585-1.166-1.011-1.603
			c-0.419-0.439-0.913-0.778-1.476-1.016c-0.562-0.239-1.154-0.358-1.769-0.358c-0.62,0-1.218,0.125-1.792,0.369
			c-0.58,0.247-1.091,0.594-1.539,1.04c-0.447,0.445-0.804,0.976-1.079,1.592c-0.265,0.614-0.402,1.299-0.402,2.051v0.047
			c0,0.752,0.138,1.443,0.402,2.064c0.275,0.623,0.632,1.154,1.079,1.591c0.448,0.439,0.959,0.781,1.539,1.026
			C397.713,69.585,398.311,69.708,398.931,69.708z"/>
		<path fill="#666666" d="M408.303,54.137h1.407v1.545h-1.407V54.137z M408.446,58.751h1.131v11.764h-1.131V58.751z"/>
		<path fill="#666666" d="M418.984,70.791c-0.707,0-1.401-0.137-2.085-0.415c-0.684-0.277-1.298-0.676-1.838-1.199
			c-0.534-0.522-0.971-1.166-1.298-1.925c-0.333-0.762-0.499-1.619-0.499-2.574v-0.044c0-0.955,0.166-1.813,0.499-2.573
			c0.327-0.761,0.764-1.408,1.298-1.939c0.54-0.53,1.154-0.936,1.838-1.22c0.684-0.286,1.378-0.428,2.085-0.428
			c0.585,0,1.125,0.077,1.619,0.229c0.488,0.155,0.931,0.363,1.326,0.625c0.391,0.261,0.747,0.562,1.057,0.9
			c0.316,0.336,0.598,0.692,0.845,1.059v-7.612h1.131v16.84h-1.131v-2.63c-0.259,0.385-0.552,0.753-0.867,1.108
			c-0.311,0.353-0.666,0.659-1.062,0.921c-0.391,0.261-0.827,0.474-1.31,0.636C420.104,70.71,419.569,70.791,418.984,70.791z
			 M419.087,69.708c0.621,0,1.218-0.124,1.798-0.371c0.574-0.246,1.085-0.591,1.533-1.039c0.448-0.444,0.804-0.975,1.08-1.589
			c0.27-0.616,0.401-1.301,0.401-2.053v-0.047c0-0.752-0.132-1.441-0.401-2.064c-0.276-0.623-0.632-1.154-1.08-1.592
			c-0.448-0.436-0.959-0.779-1.533-1.026c-0.58-0.244-1.177-0.369-1.798-0.369c-0.643,0-1.252,0.117-1.814,0.346
			s-1.051,0.563-1.464,0.994c-0.42,0.431-0.747,0.956-0.988,1.579c-0.235,0.623-0.355,1.327-0.355,2.11v0.047
			c0,0.77,0.126,1.469,0.373,2.099c0.241,0.631,0.58,1.164,0.999,1.602c0.431,0.439,0.925,0.778,1.481,1.015
			C417.882,69.588,418.473,69.708,419.087,69.708z"/>
		<path fill="#666666" d="M434.225,70.791c-0.77,0-1.51-0.144-2.211-0.437c-0.7-0.292-1.314-0.707-1.849-1.246
			c-0.528-0.539-0.953-1.185-1.258-1.938c-0.311-0.752-0.465-1.591-0.465-2.514v-0.047c0-0.846,0.144-1.641,0.431-2.387
			c0.281-0.747,0.672-1.394,1.177-1.95c0.5-0.553,1.086-0.992,1.758-1.314c0.683-0.323,1.418-0.485,2.217-0.485
			c0.832,0,1.579,0.158,2.239,0.474s1.223,0.75,1.694,1.304c0.471,0.553,0.832,1.203,1.085,1.948
			c0.253,0.747,0.379,1.558,0.379,2.435c0,0.108,0,0.188,0,0.243c0,0.053-0.006,0.125-0.022,0.217h-9.757
			c0.046,0.735,0.212,1.387,0.488,1.954c0.275,0.565,0.62,1.046,1.039,1.445c0.413,0.398,0.89,0.699,1.424,0.906
			c0.534,0.207,1.092,0.31,1.677,0.31c0.925,0,1.706-0.177,2.344-0.531c0.643-0.354,1.211-0.792,1.705-1.313l0.781,0.69
			c-0.598,0.646-1.281,1.182-2.045,1.602C436.292,70.58,435.351,70.791,434.225,70.791z M438.222,64.078
			c-0.046-0.599-0.16-1.171-0.355-1.717c-0.189-0.547-0.466-1.031-0.811-1.453c-0.344-0.423-0.775-0.762-1.286-1.016
			c-0.505-0.253-1.103-0.379-1.78-0.379c-0.586,0-1.131,0.115-1.643,0.345c-0.505,0.231-0.953,0.551-1.326,0.958
			c-0.379,0.409-0.689,0.892-0.936,1.455c-0.247,0.56-0.396,1.166-0.442,1.809H438.222z"/>
	</g>
	<circle cx="-300.392" cy="-160.735" r="14.701"/>
	<circle cx="-300.392" cy="-19.604" r="14.701"/>
	<circle cx="-371.692" cy="-90.905" r="14.701"/>
	<circle cx="-230.561" cy="-90.905" r="14.701"/>
	<circle cx="-350.505" cy="-140.587" r="14.7"/>
	<circle cx="-250.709" cy="-40.791" r="14.7"/>
	<circle cx="-351.544" cy="-40.791" r="14.7"/>
	<circle cx="-251.749" cy="-140.585" r="14.7"/>
	<g>
		<g>
			<path fill="#FFFFFF" d="M-79.593,15.721c-4.197,0-7.611-3.414-7.611-7.61c0-4.197,3.415-7.611,7.611-7.611
				c4.196,0,7.61,3.415,7.61,7.611C-71.982,12.308-75.396,15.721-79.593,15.721z"/>
			<path fill="#CCCCCC" d="M-79.593,1c3.921,0,7.11,3.19,7.11,7.111c0,3.92-3.189,7.11-7.11,7.11c-3.921,0-7.111-3.189-7.111-7.11
				C-86.704,4.19-83.514,1-79.593,1 M-79.593,0c-4.48,0-8.111,3.631-8.111,8.111c0,4.481,3.631,8.11,8.111,8.11
				c4.479,0,8.11-3.629,8.11-8.11C-71.482,3.631-75.113,0-79.593,0L-79.593,0z"/>
		</g>
		<g>
			<path fill="#FFFFFF" d="M-79.593,93.587c-4.197,0-7.611-3.415-7.611-7.611c0-4.195,3.415-7.609,7.611-7.609
				c4.196,0,7.61,3.414,7.61,7.609C-71.982,90.173-75.396,93.587-79.593,93.587z"/>
			<path fill="#CCCCCC" d="M-79.593,78.867c3.921,0,7.11,3.189,7.11,7.109c0,3.921-3.189,7.111-7.11,7.111
				c-3.921,0-7.111-3.19-7.111-7.111C-86.704,82.056-83.514,78.867-79.593,78.867 M-79.593,77.867c-4.48,0-8.111,3.629-8.111,8.109
				c0,4.48,3.631,8.111,8.111,8.111c4.479,0,8.11-3.631,8.11-8.111C-71.482,81.497-75.113,77.867-79.593,77.867L-79.593,77.867z"/>
		</g>
		<path fill="#0071BC" d="M-118.932,38.527c4.481,0,8.109,3.629,8.109,8.111c0,4.481-3.628,8.11-8.109,8.11
			c-4.48,0-8.111-3.629-8.111-8.11C-127.043,42.157-123.412,38.527-118.932,38.527z"/>
		<circle fill="#C1272D" cx="-41.065" cy="46.638" r="8.111"/>
		<path fill="#0071BC" d="M-101.508,13.492c3.17,3.168,3.17,8.304,0,11.47c-3.169,3.17-8.301,3.17-11.469,0
			c-3.168-3.166-3.168-8.301,0-11.47C-109.809,10.325-104.677,10.325-101.508,13.492z"/>
		<path fill="#C1272D" d="M-46.447,68.553c3.168,3.166,3.168,8.302,0,11.468c-3.167,3.168-8.303,3.168-11.469,0.002
			c-3.17-3.168-3.17-8.305,0-11.472C-54.75,65.383-49.614,65.383-46.447,68.553z"/>
		<circle fill="#0071BC" cx="-107.816" cy="74.288" r="8.111"/>
		<path fill="#C1272D" d="M-58.488,13.492c3.165-3.167,8.3-3.167,11.465,0c3.169,3.168,3.169,8.304,0,11.471
			c-3.165,3.168-8.3,3.168-11.465-0.001C-61.658,21.796-61.658,16.661-58.488,13.492z"/>
	</g>
</g>
</svg>
